<svg xmlns="http://www.w3.org/2000/svg">
<symbol id="icon-menu" width="24" height="24" viewBox="0 0 24 24" fill="none" xmlns="http://www.w3.org/2000/svg">
<line x1="2" y1="12" x2="22" y2="12" stroke="currentColor"/>
<line x1="2" y1="4.5" x2="22" y2="4.5" stroke="currentColor"/>
<line x1="2" y1="19.5" x2="22" y2="19.5" stroke="currentColor"/>
</symbol>
<symbol id="icon-calendar" width="16" height="17" viewBox="0 0 16 17" fill="none" xmlns="http://www.w3.org/2000/svg">
<path d="M0.5 5C0.5 3.067 2.067 1.5 4 1.5H12C13.933 1.5 15.5 3.067 15.5 5V13C15.5 14.933 13.933 16.5 12 16.5H4C2.067 16.5 0.5 14.933 0.5 13V5Z" stroke="white"/>
<line x1="4.5" y1="2.18557e-08" x2="4.5" y2="3" stroke="white"/>
<line x1="11.5" y1="2.18557e-08" x2="11.5" y2="3" stroke="white"/>
<line y1="7.5" x2="16" y2="7.5" stroke="white"/>
</symbol>
<symbol id="icon-people" width="24" height="24" viewBox="0 0 24 24" fill="none" xmlns="http://www.w3.org/2000/svg">
<circle cx="12" cy="7" r="3.5" stroke="white"/>
<path d="M19 20V19C19 15.6863 16.3137 13 13 13H11C7.68629 13 5 15.6863 5 19V20" stroke="white"/>
</symbol>
<symbol id="icon-compass" width="24" height="24" viewBox="0 0 24 24" fill="none" xmlns="http://www.w3.org/2000/svg">
<circle cx="12" cy="12" r="8.5" stroke="white"/>
<line x1="12" y1="3" x2="12" y2="5" stroke="white"/>
<line x1="19" y1="12" x2="21" y2="12" stroke="white"/>
<line x1="12" y1="19" x2="12" y2="21" stroke="white"/>
<line x1="3" y1="12" x2="5" y2="12" stroke="white"/>
<path d="M14.5985 13.5002L10.0004 15.4643L9.40234 10.5002M14.5985 13.5002L14.0004 8.53613L9.40234 10.5002M14.5985 13.5002L9.40234 10.5002" stroke="white"/>
</symbol>
<symbol id="icon-news" width="24" height="24" viewBox="0 0 24 24" fill="none" xmlns="http://www.w3.org/2000/svg">
<path d="M4.5 8C4.5 6.067 6.067 4.5 8 4.5H16C17.933 4.5 19.5 6.067 19.5 8V16C19.5 17.933 17.933 19.5 16 19.5H8C6.067 19.5 4.5 17.933 4.5 16V8Z" stroke="white"/>
<line x1="8" y1="9" x2="16" y2="9" stroke="white"/>
<line x1="8" y1="12" x2="16" y2="12" stroke="white"/>
<line x1="8" y1="15" x2="13" y2="15" stroke="white"/>
</symbol>
<symbol id="icon-add" width="24" height="24" viewBox="0 0 24 24" fill="none" xmlns="http://www.w3.org/2000/svg">
<path d="M4.5 8C4.5 6.067 6.067 4.5 8 4.5H16C17.933 4.5 19.5 6.067 19.5 8V16C19.5 17.933 17.933 19.5 16 19.5H8C6.067 19.5 4.5 17.933 4.5 16V8Z" stroke="white"/>
<line x1="8" y1="12" x2="16" y2="12" stroke="white"/>
<line x1="12" y1="16" x2="12" y2="8" stroke="white"/>
</symbol>
<symbol id="icon-phone" width="24" height="24" viewBox="0 0 24 24" fill="none" xmlns="http://www.w3.org/2000/svg">
<path d="M19.2825 20.7875L19.2825 20.7875C18.4201 21.2554 17.5462 21.5 16.6662 21.5C16.4144 21.5 16.168 21.4837 15.927 21.4506C15.6815 21.4169 15.4134 21.358 15.1246 21.2768C14.8496 21.1994 14.634 21.134 14.4855 21.0813C14.3487 21.0327 14.1083 20.9439 13.7676 20.8162C13.4228 20.6869 13.2244 20.6142 13.1586 20.5922L13.1486 20.5889L13.1486 20.5888C12.2848 20.2803 11.5063 19.9119 10.8158 19.4816M19.2825 20.7875L4.51887 13.185C4.51868 13.1846 4.51848 13.1843 4.51828 13.184M19.2825 20.7875L19.2865 20.7853C19.7356 20.5363 20.1127 20.2849 20.4075 20.0287C20.698 19.7763 20.9325 19.4987 21.063 19.1906C21.1741 18.937 21.2714 18.6121 21.3594 18.2292C21.4484 17.8422 21.5 17.5002 21.5 17.2159C21.5 17.0815 21.4882 16.9177 21.4285 16.7682C21.3792 16.6351 21.2942 16.5345 21.2277 16.4673C21.152 16.3906 21.0616 16.3193 20.9664 16.2529C20.7785 16.1219 20.5286 15.9806 20.2274 15.8295C20.0605 15.7332 19.8301 15.6054 19.5383 15.4469C19.2416 15.2859 18.9731 15.1379 18.7327 15.0029C18.501 14.8728 18.2837 14.7471 18.0808 14.6256C18.0256 14.5856 17.9183 14.5109 17.7685 14.4074C17.579 14.2766 17.4041 14.1691 17.2479 14.0938C17.0667 14.0063 16.8713 13.9545 16.6662 13.9545C16.4642 13.9545 16.2818 14.0252 16.1309 14.1112C15.9778 14.1985 15.8281 14.3182 15.6826 14.4564C15.4062 14.719 15.153 15.0045 14.9231 15.3125C14.723 15.5807 14.5117 15.8276 14.2896 16.0537C14.1864 16.1588 14.1091 16.2201 14.057 16.2523C14.0489 16.2573 14.0421 16.2612 14.0366 16.2642C14.0154 16.2595 13.985 16.2508 13.9443 16.2357C13.8346 16.1951 13.7673 16.1663 13.7321 16.1487C13.695 16.1301 13.6102 16.0815 13.4645 15.9915C13.3512 15.9216 13.253 15.8611 13.2013 15.8327L13.2014 15.8327C12.0692 15.2046 11.1064 14.4902 10.3081 13.6919C9.50976 12.8936 8.79537 11.9308 8.16734 10.7986L8.16731 10.7987C8.1389 10.747 8.07844 10.6488 8.0085 10.5355C7.91848 10.3898 7.86991 10.305 7.85133 10.2679C7.83373 10.2327 7.80492 10.1654 7.76433 10.0557C7.74922 10.015 7.7405 9.98457 7.73577 9.96345C7.73877 9.95788 7.74266 9.95109 7.74765 9.94302C7.77992 9.89094 7.8412 9.81361 7.94629 9.71036C8.17236 9.48826 8.41929 9.27703 8.68754 9.07685C8.99553 8.84701 9.28099 8.59382 9.54361 8.31739C9.68184 8.17188 9.80146 8.02221 9.88876 7.86905C9.97475 7.71818 10.0455 7.53576 10.0455 7.33381C10.0455 7.12867 9.99371 6.93328 9.90624 6.75209C9.83086 6.59594 9.72337 6.42098 9.59256 6.23153C9.48909 6.08168 9.41436 5.9744 9.37438 5.91916C9.25292 5.71627 9.12716 5.49902 8.99707 5.26731C8.86208 5.02686 8.7141 4.75838 8.55306 4.46174C8.39463 4.16988 8.26681 3.93954 8.17048 3.77267C8.01937 3.4714 7.87815 3.22148 7.74713 3.0336C7.68072 2.93837 7.60935 2.84804 7.53275 2.7723C7.4655 2.7058 7.36488 2.62082 7.23183 2.57146C7.08233 2.51176 6.91854 2.5 6.78409 2.5C6.49985 2.5 6.15777 2.55159 5.77079 2.64055C5.3879 2.72857 5.063 2.82589 4.80942 2.93703M19.2825 20.7875L4.80942 2.93703M10.8158 19.4816C10.8156 19.4815 10.8153 19.4813 10.815 19.4811L11.0795 19.0569L10.8169 19.4823C10.8166 19.4821 10.8162 19.4819 10.8158 19.4816ZM10.8158 19.4816C9.68453 18.7832 8.52769 17.8385 7.3446 16.6554C6.16146 15.4723 5.21668 14.3154 4.51828 13.184M4.51828 13.184C4.088 12.4936 3.7197 11.7151 3.41123 10.8514L3.40765 10.8414L3.40776 10.8414C3.38584 10.7756 3.31314 10.5772 3.18382 10.2324C3.05607 9.89171 2.96725 9.65133 2.9187 9.51451C2.86601 9.36601 2.80056 9.1504 2.72322 8.87543C2.64199 8.58659 2.58309 8.31849 2.54939 8.07296C2.51632 7.83203 2.5 7.58556 2.5 7.33381C2.5 6.45382 2.74462 5.5799 3.21251 4.71752L3.21469 4.7135L3.21471 4.71351C3.4637 4.26444 3.71513 3.88734 3.97129 3.59252C4.2237 3.302 4.50125 3.06749 4.80942 2.93703M4.51828 13.184L4.80942 2.93703" stroke="white"/>
</symbol>
<symbol id="icon-close" width="24" height="24" viewBox="0 0 24 24" fill="none" xmlns="http://www.w3.org/2000/svg">
<line x1="4.57613" y1="19.2177" x2="18.7183" y2="5.0756" stroke="currentColor"/>
<line x1="5.28324" y1="5.07516" x2="19.4254" y2="19.2173" stroke="currentColor"/>
</symbol>
<symbol id="icon-plus" width="24" height="24" viewBox="0 0 24 24" fill="none" xmlns="http://www.w3.org/2000/svg">
<line x1="2" y1="12" x2="22" y2="12" stroke="white"/>
<line x1="11.5" y1="22.5" x2="11.5" y2="2.5" stroke="white"/>
</symbol>
<symbol id="icon-drop" width="24" height="24" viewBox="0 0 24 24" fill="none" xmlns="http://www.w3.org/2000/svg">
<path d="M22 8L12 18L2 8" stroke="white"/>
</symbol>
<symbol id="icon-guesthouse" width="24" height="24" viewBox="0 0 24 24" fill="none" xmlns="http://www.w3.org/2000/svg">
<g clip-path="url(#clip0_263_780)">
<circle cx="12" cy="16" r="8.5" stroke="white"/>
<circle cx="12" cy="16" r="8.5" stroke="white"/>
<circle cx="12" cy="16" r="8.5" stroke="white"/>
</g>
<g clip-path="url(#clip1_263_780)">
<circle cx="12" cy="7" r="2.5" stroke="white"/>
<circle cx="12" cy="7" r="2.5" stroke="white"/>
<circle cx="12" cy="7" r="2.5" stroke="white"/>
</g>
<path d="M1.75559 17.1074C1.68696 16.7955 1.92447 16.5 2.24391 16.5H21.7561C22.0755 16.5 22.313 16.7955 22.2444 17.1074L21.5844 20.1074C21.534 20.3367 21.3308 20.5 21.0961 20.5H2.90392C2.66917 20.5 2.46603 20.3367 2.41559 20.1074L1.75559 17.1074Z" stroke="white"/>
<defs>
<clipPath id="clip0_263_780">
<rect width="18" height="10" fill="white" transform="translate(3 7)"/>
</clipPath>
<clipPath id="clip1_263_780">
<rect width="6" height="4" fill="white" transform="translate(9 4)"/>
</clipPath>
</defs>
</symbol>
<symbol id="icon-arrow" width="29" height="14" viewBox="0 0 29 14" fill="none" xmlns="http://www.w3.org/2000/svg">
<path id="Vector 15" d="M0 7H28M28 7L22 1M28 7L22 13" stroke="white"/>
</symbol>
<symbol id="icon-service_1"  width="48" height="48" viewBox="0 0 48 48" fill="none" xmlns="http://www.w3.org/2000/svg">
<path fill-rule="evenodd" clip-rule="evenodd" d="M39.4068 25.6714C42.8188 29.8225 48 28.4024 48 24.0546C48 19.6632 42.4397 18.6145 39.4068 22.3942C36.6055 22.9622 31.5296 23.137 29.2549 22.7656C29.2549 22.2194 29.0864 21.6513 28.7073 21.5203C30.982 17.8716 35.405 17.5002 39.3857 13.7205C41.0075 11.8635 42.7977 7.34092 41.8921 6.53254C41.176 6.03004 37.8271 7.14429 35.0259 8.62995C31.677 11.5357 30.7925 17.4784 26.7907 19.838C26.6222 19.4665 26.0746 19.2699 25.7797 19.2699C25.2321 17.107 24.7056 10.4215 25.5902 8.97952C29.2339 5.81156 28.2229 0 23.9895 0C19.6297 0 18.4291 5.63678 22.2624 8.97952C22.7889 10.0282 22.9785 16.7137 22.6204 19.4447C22.0728 19.4447 21.5463 19.8161 21.1882 20.1875C17.376 18.0246 16.1755 11.5139 13.0162 8.6081C10.215 7.14429 6.80298 6.03004 6.15007 6.53254C5.24441 7.34092 7.05573 11.8635 8.65643 13.7205C12.4686 17.3036 17.018 18.9859 19.4612 22.1975L19.1031 22.9404C17.1865 23.1152 10.215 23.5084 8.65643 22.3723C5.60246 18.5926 0 19.6413 0 24.0328C0 28.3587 5.2444 29.8006 8.65643 25.6495C11.0996 25.2781 16.3651 25.4747 18.9346 25.4747C19.1242 25.8462 19.1242 26.2176 19.1242 26.4142C16.681 29.4511 12.3212 31.1115 8.67749 34.5198C7.07679 36.3769 5.26547 40.8994 6.17113 41.5767C6.82404 42.1884 10.2361 41.0742 13.0373 39.5885C16.0281 37.0542 17.2075 30.9149 20.5564 28.5553C21.2093 29.0578 21.9254 29.4292 22.8311 29.604C23.0206 32.5098 22.8311 38.1466 22.3045 39.0205C18.4923 42.3632 19.6718 48 24.0316 48C28.265 48 29.276 42.1884 25.6323 39.0205C24.5581 37.6004 25.2742 31.9636 25.6323 29.4292C26.1167 29.2544 26.8328 28.9267 27.1909 28.3805C30.7082 31.1115 31.9087 36.8575 35.068 39.5885C37.8692 41.0742 41.2181 42.1884 41.9342 41.5767C42.8398 40.8994 41.0496 36.3769 39.4278 34.5198C35.6156 31.1115 31.1926 29.6259 28.7495 26.4142C28.939 26.2176 28.939 25.8462 28.939 25.4747C31.3401 25.4747 36.6055 25.1033 39.4068 25.6714Z" fill="#AA8C67" fill-opacity="0.4"/>
</symbol>
<symbol id="icon-service_2" width="48" height="48" viewBox="0 0 48 48" fill="none" xmlns="http://www.w3.org/2000/svg">
<path fill-rule="evenodd" clip-rule="evenodd" d="M21.4118 23.716C21.5282 21.8946 22.4723 21.2405 24.1923 21.2405C25.6924 21.3431 26.5718 22.2153 26.5718 24.2547C26.4684 26.0761 25.3691 26.7303 23.7914 26.7303C22.2912 26.6276 21.4118 25.7554 21.4118 23.716ZM43.2158 19.573C38.9222 20.8429 36.9048 22.1127 31.9258 22.9592C28.4729 23.5108 28.266 21.4714 29.8696 19.7654C34.8227 15.0068 40.7586 10.4149 46.992 4.12984C49.8889 1.25669 45.8152 -1.35993 43.8753 0.820586C38.0816 7.22105 32.3655 13.9037 28.1884 18.0852C26.5718 19.6885 24.4121 19.4704 24.9553 16.1612C25.7959 11.2486 27.0762 9.14503 28.3694 4.88661C29.2488 2.1289 26.0287 -0.641643 23.9724 2.84718C21.8515 -0.641643 18.6185 2.11607 19.5754 4.87378C20.8945 9.13221 22.1748 11.2358 23.0284 16.1483C23.5845 19.4576 21.4118 19.6756 19.8082 18.0723C15.6181 13.8909 9.90205 7.20822 4.10836 0.80776C2.16851 -1.37276 -1.86639 1.24386 0.991662 4.11702C7.22505 10.402 13.161 14.9939 18.0753 19.7526C19.6918 21.4585 19.472 23.498 16.0578 22.9464C11.066 22.1127 9.04852 20.8429 4.72911 19.573C1.83226 18.8034 -0.909393 22.0101 2.82806 24.088C-0.909393 25.9735 1.8452 29.2827 4.72911 28.449C9.06145 27.1407 11.066 25.8709 16.0578 25.0372C19.472 24.4856 19.6918 26.525 18.0753 28.231C13.161 32.9896 7.22505 37.5815 0.991662 43.8666C-1.86639 46.7397 2.16851 49.3948 4.10836 47.1758C9.90205 40.7754 15.6181 34.0799 19.7953 29.9369C21.4118 28.3336 23.5715 28.5132 23.0154 31.8224C22.1748 36.735 20.8945 38.8385 19.5625 43.1354C18.7219 45.8932 21.9421 48.6637 23.9595 45.1364C26.1192 48.6637 29.3523 45.906 28.3565 43.1354C27.0762 38.8514 25.7959 36.735 24.9424 31.8224C24.3992 28.5132 26.5589 28.3336 28.1755 29.9369C32.3526 34.0799 38.0687 40.7754 43.8624 47.1758C45.8022 49.3948 49.8759 46.7397 46.9791 43.8666C40.7457 37.5815 34.8098 32.9896 29.8567 28.231C28.2401 26.525 28.46 24.4856 31.9129 25.0372C36.9048 25.8709 38.9093 27.1407 43.2028 28.449C46.0997 29.2827 48.9189 25.9735 45.1427 24.088C48.9319 22.0101 46.1126 18.8034 43.2158 19.573Z" fill="#AA8C67" fill-opacity="0.4"/>
</symbol>
<symbol id="icon-service_3" width="48" height="48" viewBox="0 0 48 48" fill="none" xmlns="http://www.w3.org/2000/svg">
<path fill-rule="evenodd" clip-rule="evenodd" d="M23.1273 27.672C22.5301 27.5625 22.0225 27.3635 21.6343 27.055C16.1004 32.2993 14.3786 39.0462 2.7833 45.5842C1.17091 46.4898 -0.322045 45.5842 0.78274 43.7731C7.01333 33.2845 17.7924 30.1797 20.6191 25.9405C20.3106 25.5424 20.1115 25.0349 20.1115 24.5274C14.7767 25.1245 8.20769 27.3436 1.57898 25.234C-0.511152 24.6369 -0.511152 23.6219 1.4894 23.1143C8.11811 20.9947 15.1748 22.7163 20.1115 23.2238C20.221 22.9153 20.3106 22.5173 20.5096 22.2088C17.7128 18.1089 7.01333 14.8847 0.78274 4.3961C-0.322045 2.59493 1.18086 1.68937 2.7833 2.59493C14.2691 9.14283 16.1004 15.8798 21.5149 21.0146C21.913 20.736 22.5301 20.5071 23.1273 20.4176C22.6197 15.3922 20.8182 8.31688 23.0377 1.49034C23.5154 -0.509854 24.5306 -0.509854 25.1278 1.56995C27.2478 8.42634 24.8491 14.9643 24.3415 20.4176C24.8491 20.4972 25.2473 20.6166 25.7549 20.9251C31.0897 15.7902 32.8912 9.02341 44.377 2.58498C46.0093 1.67941 47.5122 2.58498 46.4074 4.38615C40.2564 14.5762 29.8754 17.9099 26.7402 21.9102C26.9691 22.3381 27.2478 22.8158 27.3573 23.3233C32.294 22.9253 39.5497 20.9251 46.487 23.1243C48.5174 23.6318 48.5174 24.6468 46.4074 25.2439C39.5497 27.3635 32.8912 25.0449 27.4469 24.4279C27.3573 25.1344 27.0488 25.7514 26.6606 26.2589C29.6764 30.2593 40.1768 33.4835 46.4074 43.7731C47.5022 45.5842 46.0093 46.4798 44.377 45.5842C32.7817 39.1557 31.0897 32.3789 25.5558 27.1645C25.1278 27.3635 24.7397 27.5625 24.3415 27.672C24.8491 33.0059 27.2478 39.6632 25.1278 46.4002C24.5306 48.5198 23.5154 48.5198 23.0377 46.4798C20.8182 39.7428 22.6197 32.6874 23.1273 27.672Z" fill="#AA8C67" fill-opacity="0.4"/>
</symbol>
<symbol id="icon-service_4" width="48" height="48" viewBox="0 0 48 48" fill="none" xmlns="http://www.w3.org/2000/svg">
<path fill-rule="evenodd" clip-rule="evenodd" d="M39.0693 42.5993C39.0693 44.1259 40.2837 45.335 41.7066 45.335C43.24 45.335 44.4544 44.1259 44.4544 42.5993C44.4544 41.0727 43.24 39.9735 41.7066 39.9735C40.2837 39.9735 39.0693 41.0849 39.0693 42.5993ZM39.0693 6.08283C39.0693 7.5728 40.2837 8.81851 41.7066 8.81851C43.24 8.81851 44.4544 7.5728 44.4544 6.08283C44.4544 4.55622 43.24 3.34715 41.7066 3.34715C40.2837 3.34715 39.0693 4.55622 39.0693 6.08283ZM3.07828 42.5993C3.07828 44.1259 4.2927 45.335 5.82605 45.335C7.35941 45.335 8.46343 44.1259 8.46343 42.5993C8.46343 41.0727 7.34715 39.9735 5.82605 39.9735C4.30496 39.9735 3.07828 41.0849 3.07828 42.5993ZM3.07828 6.08283C3.07828 7.5728 4.2927 8.81851 5.82605 8.81851C7.35941 8.81851 8.4757 7.5728 8.4757 6.08283C8.4757 4.55622 7.35941 3.34715 5.83832 3.34715C4.30496 3.34715 3.07828 4.55622 3.07828 6.08283ZM34.2729 24.2556C34.2729 22.0084 31.427 20.1032 26.8269 22.216C25.9192 22.7412 25.2322 22.5336 25.821 21.7031C27.4525 20.0055 27.8696 14.3265 23.8338 14.3265C19.8716 14.3265 20.2887 20.1032 21.9202 21.8008C22.6194 22.6313 21.822 22.7412 20.9143 22.3259C16.6332 20.1765 13.4683 21.4222 13.4683 24.2678C13.4683 26.6859 16.5228 28.5911 20.9143 26.2707C21.822 25.8554 22.6194 26.0631 21.9202 26.7836C20.2887 28.5789 19.8716 34.1602 23.8338 34.1602C27.8696 34.1602 27.4525 28.5911 25.821 26.7836C25.2322 26.0509 25.9192 25.8554 26.8269 26.2707C31.5251 28.4079 34.2729 26.576 34.2729 24.2556ZM23.5639 4.93482C23.7725 4.76384 23.9442 4.55622 24.3 4.86155L42.6389 23.7426C42.8475 23.8403 43.3381 24.2556 42.9579 24.6464L24.3122 43.1366C24.1037 43.2466 23.8583 43.5519 23.4781 43.2466L5.33538 24.7441C5.22498 24.6464 4.70977 24.1579 5.01644 23.8403L23.5639 4.93482ZM0.4409 23.6327C-0.0129744 24.1579 -0.111109 24.4265 0.121961 24.7441L23.245 47.692C23.7602 48.1805 23.8338 48.0706 24.4962 47.4844L47.5211 24.8418C47.9014 24.4265 48.2203 24.1456 47.8033 23.7304L24.6066 0.403854C24.0914 -0.0846607 23.9442 -0.182364 23.3554 0.403854L0.4409 23.6327Z" fill="#AA8C67" fill-opacity="0.4"/>
</symbol>
<symbol id="icon-vk" width="24" height="24" viewBox="0 0 24 24" fill="none" xmlns="http://www.w3.org/2000/svg">
<path stroke="currentColor" fill-rule="evenodd" clip-rule="evenodd" d="M21.5292 6.83333C21.6775 6.36333 21.5292 6.02167 20.8729 6.02167H18.6909C18.1404 6.02167 17.8863 6.32083 17.7379 6.64083C17.7379 6.64083 16.6154 9.37417 15.0479 11.1462C14.5396 11.6588 14.3067 11.8296 14.0313 11.8296C13.8829 11.8296 13.6921 11.6588 13.6921 11.1892V6.81125C13.6921 6.25625 13.5229 6 13.0567 6H9.62501C9.28584 6 9.07418 6.25625 9.07418 6.5125C9.07418 7.04625 9.85793 7.17458 9.94251 8.66917V11.9167C9.94251 12.6213 9.81751 12.75 9.54001 12.75C8.79876 12.75 6.99834 9.99542 5.91834 6.85667C5.70834 6.235 5.495 6 4.94417 6H2.74125C2.10583 6 2 6.29875 2 6.61917C2 7.19583 2.74125 10.0996 5.4525 13.9429C7.25292 16.5679 9.81584 17.9788 12.1246 17.9788C13.5229 17.9788 13.6921 17.6583 13.6921 17.1246V15.1388C13.6921 14.4983 13.8192 14.3917 14.2642 14.3917C14.5817 14.3917 15.1538 14.5621 16.4459 15.8221C17.9284 17.3167 18.1825 18 19.0088 18H21.1904C21.8259 18 22.1225 17.6796 21.9529 17.0604C21.7625 16.4413 21.0421 15.5446 20.11 14.4771C19.6017 13.8796 18.8392 13.2175 18.6063 12.8971C18.2888 12.47 18.3734 12.2992 18.6063 11.915C18.585 11.915 21.2542 8.11417 21.5292 6.83167" fill="white"/>
</symbol>
<symbol id="icon-tg" width="24" height="24" viewBox="0 0 24 24" fill="none" xmlns="http://www.w3.org/2000/svg">
<path stroke="currentColor" d="M20.9459 5.45659L18.0786 19.0342C17.8623 19.9924 17.2982 20.2309 16.4966 19.7795L12.1279 16.5469L10.0199 18.5827C9.78661 18.817 9.5915 19.0129 9.14191 19.0129L9.45578 14.5452L17.5527 7.19851C17.9047 6.88334 17.4764 6.70873 17.0056 7.02389L6.99574 13.3527L2.68642 11.9984C1.74906 11.7045 1.7321 11.0571 2.88153 10.6057L19.737 4.0852C20.5175 3.79134 21.2003 4.25982 20.9459 5.45659Z" fill="white"/>
</symbol>
<symbol id="icon-od" width="24" height="24" viewBox="0 0 24 24" fill="none" xmlns="http://www.w3.org/2000/svg">
<path stroke="currentColor" fill-rule="evenodd" clip-rule="evenodd" d="M6.99609 4.94651C6.99609 2.19845 9.25664 0 11.9989 0C14.7412 0 17.0018 2.19845 17.0018 4.94651C17.0018 7.69457 14.7783 9.89301 11.9989 9.89301C9.21958 9.89301 6.99609 7.65793 6.99609 4.94651ZM10.3313 4.94651C10.3313 5.86253 11.0725 6.59534 11.9989 6.59534C12.9254 6.59534 13.6665 5.86253 13.6665 4.94651C13.6665 4.03049 12.9254 3.29767 11.9989 3.29767C11.0725 3.29767 10.3313 4.03049 10.3313 4.94651ZM14.1479 14.6191C15.519 14.3992 16.8902 13.9229 18.1502 13.2267C18.9284 12.787 19.2248 11.8344 18.8172 11.0283C18.4096 10.2588 17.409 9.96568 16.6308 10.4054C13.7773 11.9443 10.2568 11.9443 7.44036 10.3687C6.66214 9.92904 5.66158 10.1855 5.21688 10.955C4.77218 11.7611 5.03159 12.7137 5.80981 13.1534C7.03272 13.8496 8.40387 14.2893 9.77502 14.5458L5.92098 19.3091C5.47628 19.8587 5.43923 20.7747 5.84687 21.3243C6.18039 21.764 6.66214 21.9839 7.1439 21.9839C7.62565 21.9839 8.07035 21.8007 8.40387 21.3976L11.9615 17.0374L15.5561 21.3976C16.2231 22.2404 17.5572 22.2037 18.1872 21.251C18.5948 20.6648 18.4837 19.8953 18.039 19.3457L14.1479 14.6191Z" fill="white"/>
</symbol>
<symbol id="icon-youtube"  width="24" height="24" viewBox="0 0 24 24" fill="none" xmlns="http://www.w3.org/2000/svg">
<g id="Social Media / Youtube">
<path stroke="currentColor" id="Vector" d="M21.5821 16.8095C21.3521 17.6717 20.6744 18.3508 19.8139 18.5812C18.2542 19 12 19 12 19C12 19 5.74586 19 4.18613 18.5812C3.32565 18.3508 2.64794 17.6717 2.41792 16.8095C2 15.2466 2 11.9859 2 11.9859C2 11.9859 2 8.72509 2.41792 7.16224C2.64794 6.3 3.32565 5.64921 4.18613 5.41876C5.74586 5 12 5 12 5C12 5 18.2541 5 19.8139 5.41876C20.6744 5.64921 21.3521 6.3 21.5821 7.16224C22 8.72509 22 11.9859 22 11.9859C22 11.9859 22 15.2466 21.5821 16.8095ZM9.95453 9.02533V14.9464L15.1818 11.9858L9.95453 9.02533Z" fill="white"/>
</g>
</symbol>
</svg>

