<svg width="48" height="48" viewBox="0 0 48 48" fill="none" xmlns="http://www.w3.org/2000/svg">
<path fill-rule="evenodd" clip-rule="evenodd" d="M39.0693 42.5993C39.0693 44.1259 40.2837 45.335 41.7066 45.335C43.24 45.335 44.4544 44.1259 44.4544 42.5993C44.4544 41.0727 43.24 39.9735 41.7066 39.9735C40.2837 39.9735 39.0693 41.0849 39.0693 42.5993ZM39.0693 6.08283C39.0693 7.5728 40.2837 8.81851 41.7066 8.81851C43.24 8.81851 44.4544 7.5728 44.4544 6.08283C44.4544 4.55622 43.24 3.34715 41.7066 3.34715C40.2837 3.34715 39.0693 4.55622 39.0693 6.08283ZM3.07828 42.5993C3.07828 44.1259 4.2927 45.335 5.82605 45.335C7.35941 45.335 8.46343 44.1259 8.46343 42.5993C8.46343 41.0727 7.34715 39.9735 5.82605 39.9735C4.30496 39.9735 3.07828 41.0849 3.07828 42.5993ZM3.07828 6.08283C3.07828 7.5728 4.2927 8.81851 5.82605 8.81851C7.35941 8.81851 8.4757 7.5728 8.4757 6.08283C8.4757 4.55622 7.35941 3.34715 5.83832 3.34715C4.30496 3.34715 3.07828 4.55622 3.07828 6.08283ZM34.2729 24.2556C34.2729 22.0084 31.427 20.1032 26.8269 22.216C25.9192 22.7412 25.2322 22.5336 25.821 21.7031C27.4525 20.0055 27.8696 14.3265 23.8338 14.3265C19.8716 14.3265 20.2887 20.1032 21.9202 21.8008C22.6194 22.6313 21.822 22.7412 20.9143 22.3259C16.6332 20.1765 13.4683 21.4222 13.4683 24.2678C13.4683 26.6859 16.5228 28.5911 20.9143 26.2707C21.822 25.8554 22.6194 26.0631 21.9202 26.7836C20.2887 28.5789 19.8716 34.1602 23.8338 34.1602C27.8696 34.1602 27.4525 28.5911 25.821 26.7836C25.2322 26.0509 25.9192 25.8554 26.8269 26.2707C31.5251 28.4079 34.2729 26.576 34.2729 24.2556ZM23.5639 4.93482C23.7725 4.76384 23.9442 4.55622 24.3 4.86155L42.6389 23.7426C42.8475 23.8403 43.3381 24.2556 42.9579 24.6464L24.3122 43.1366C24.1037 43.2466 23.8583 43.5519 23.4781 43.2466L5.33538 24.7441C5.22498 24.6464 4.70977 24.1579 5.01644 23.8403L23.5639 4.93482ZM0.4409 23.6327C-0.0129744 24.1579 -0.111109 24.4265 0.121961 24.7441L23.245 47.692C23.7602 48.1805 23.8338 48.0706 24.4962 47.4844L47.5211 24.8418C47.9014 24.4265 48.2203 24.1456 47.8033 23.7304L24.6066 0.403854C24.0914 -0.0846607 23.9442 -0.182364 23.3554 0.403854L0.4409 23.6327Z" fill="#AA8C67" fill-opacity="0.4"/>
</svg>
