<svg width="48" height="48" viewBox="0 0 48 48" fill="none" xmlns="http://www.w3.org/2000/svg">
<path fill-rule="evenodd" clip-rule="evenodd" d="M21.4118 23.716C21.5282 21.8946 22.4723 21.2405 24.1923 21.2405C25.6924 21.3431 26.5718 22.2153 26.5718 24.2547C26.4684 26.0761 25.3691 26.7303 23.7914 26.7303C22.2912 26.6276 21.4118 25.7554 21.4118 23.716ZM43.2158 19.573C38.9222 20.8429 36.9048 22.1127 31.9258 22.9592C28.4729 23.5108 28.266 21.4714 29.8696 19.7654C34.8227 15.0068 40.7586 10.4149 46.992 4.12984C49.8889 1.25669 45.8152 -1.35993 43.8753 0.820586C38.0816 7.22105 32.3655 13.9037 28.1884 18.0852C26.5718 19.6885 24.4121 19.4704 24.9553 16.1612C25.7959 11.2486 27.0762 9.14503 28.3694 4.88661C29.2488 2.1289 26.0287 -0.641643 23.9724 2.84718C21.8515 -0.641643 18.6185 2.11607 19.5754 4.87378C20.8945 9.13221 22.1748 11.2358 23.0284 16.1483C23.5845 19.4576 21.4118 19.6756 19.8082 18.0723C15.6181 13.8909 9.90205 7.20822 4.10836 0.80776C2.16851 -1.37276 -1.86639 1.24386 0.991662 4.11702C7.22505 10.402 13.161 14.9939 18.0753 19.7526C19.6918 21.4585 19.472 23.498 16.0578 22.9464C11.066 22.1127 9.04852 20.8429 4.72911 19.573C1.83226 18.8034 -0.909393 22.0101 2.82806 24.088C-0.909393 25.9735 1.8452 29.2827 4.72911 28.449C9.06145 27.1407 11.066 25.8709 16.0578 25.0372C19.472 24.4856 19.6918 26.525 18.0753 28.231C13.161 32.9896 7.22505 37.5815 0.991662 43.8666C-1.86639 46.7397 2.16851 49.3948 4.10836 47.1758C9.90205 40.7754 15.6181 34.0799 19.7953 29.9369C21.4118 28.3336 23.5715 28.5132 23.0154 31.8224C22.1748 36.735 20.8945 38.8385 19.5625 43.1354C18.7219 45.8932 21.9421 48.6637 23.9595 45.1364C26.1192 48.6637 29.3523 45.906 28.3565 43.1354C27.0762 38.8514 25.7959 36.735 24.9424 31.8224C24.3992 28.5132 26.5589 28.3336 28.1755 29.9369C32.3526 34.0799 38.0687 40.7754 43.8624 47.1758C45.8022 49.3948 49.8759 46.7397 46.9791 43.8666C40.7457 37.5815 34.8098 32.9896 29.8567 28.231C28.2401 26.525 28.46 24.4856 31.9129 25.0372C36.9048 25.8709 38.9093 27.1407 43.2028 28.449C46.0997 29.2827 48.9189 25.9735 45.1427 24.088C48.9319 22.0101 46.1126 18.8034 43.2158 19.573Z" fill="#AA8C67" fill-opacity="0.4"/>
</svg>
