<svg width="48" height="48" viewBox="0 0 48 48" fill="none" xmlns="http://www.w3.org/2000/svg">
<path fill-rule="evenodd" clip-rule="evenodd" d="M23.1273 27.672C22.5301 27.5625 22.0225 27.3635 21.6343 27.055C16.1004 32.2993 14.3786 39.0462 2.7833 45.5842C1.17091 46.4898 -0.322045 45.5842 0.78274 43.7731C7.01333 33.2845 17.7924 30.1797 20.6191 25.9405C20.3106 25.5424 20.1115 25.0349 20.1115 24.5274C14.7767 25.1245 8.20769 27.3436 1.57898 25.234C-0.511152 24.6369 -0.511152 23.6219 1.4894 23.1143C8.11811 20.9947 15.1748 22.7163 20.1115 23.2238C20.221 22.9153 20.3106 22.5173 20.5096 22.2088C17.7128 18.1089 7.01333 14.8847 0.78274 4.3961C-0.322045 2.59493 1.18086 1.68937 2.7833 2.59493C14.2691 9.14283 16.1004 15.8798 21.5149 21.0146C21.913 20.736 22.5301 20.5071 23.1273 20.4176C22.6197 15.3922 20.8182 8.31688 23.0377 1.49034C23.5154 -0.509854 24.5306 -0.509854 25.1278 1.56995C27.2478 8.42634 24.8491 14.9643 24.3415 20.4176C24.8491 20.4972 25.2473 20.6166 25.7549 20.9251C31.0897 15.7902 32.8912 9.02341 44.377 2.58498C46.0093 1.67941 47.5122 2.58498 46.4074 4.38615C40.2564 14.5762 29.8754 17.9099 26.7402 21.9102C26.9691 22.3381 27.2478 22.8158 27.3573 23.3233C32.294 22.9253 39.5497 20.9251 46.487 23.1243C48.5174 23.6318 48.5174 24.6468 46.4074 25.2439C39.5497 27.3635 32.8912 25.0449 27.4469 24.4279C27.3573 25.1344 27.0488 25.7514 26.6606 26.2589C29.6764 30.2593 40.1768 33.4835 46.4074 43.7731C47.5022 45.5842 46.0093 46.4798 44.377 45.5842C32.7817 39.1557 31.0897 32.3789 25.5558 27.1645C25.1278 27.3635 24.7397 27.5625 24.3415 27.672C24.8491 33.0059 27.2478 39.6632 25.1278 46.4002C24.5306 48.5198 23.5154 48.5198 23.0377 46.4798C20.8182 39.7428 22.6197 32.6874 23.1273 27.672Z" fill="#AA8C67" fill-opacity="0.4"/>
</svg>
