<svg width="48" height="48" viewBox="0 0 48 48" fill="none" xmlns="http://www.w3.org/2000/svg">
<path fill-rule="evenodd" clip-rule="evenodd" d="M39.4068 25.6714C42.8188 29.8225 48 28.4024 48 24.0546C48 19.6632 42.4397 18.6145 39.4068 22.3942C36.6055 22.9622 31.5296 23.137 29.2549 22.7656C29.2549 22.2194 29.0864 21.6513 28.7073 21.5203C30.982 17.8716 35.405 17.5002 39.3857 13.7205C41.0075 11.8635 42.7977 7.34092 41.8921 6.53254C41.176 6.03004 37.8271 7.14429 35.0259 8.62995C31.677 11.5357 30.7925 17.4784 26.7907 19.838C26.6222 19.4665 26.0746 19.2699 25.7797 19.2699C25.2321 17.107 24.7056 10.4215 25.5902 8.97952C29.2339 5.81156 28.2229 0 23.9895 0C19.6297 0 18.4291 5.63678 22.2624 8.97952C22.7889 10.0282 22.9785 16.7137 22.6204 19.4447C22.0728 19.4447 21.5463 19.8161 21.1882 20.1875C17.376 18.0246 16.1755 11.5139 13.0162 8.6081C10.215 7.14429 6.80298 6.03004 6.15007 6.53254C5.24441 7.34092 7.05573 11.8635 8.65643 13.7205C12.4686 17.3036 17.018 18.9859 19.4612 22.1975L19.1031 22.9404C17.1865 23.1152 10.215 23.5084 8.65643 22.3723C5.60246 18.5926 0 19.6413 0 24.0328C0 28.3587 5.2444 29.8006 8.65643 25.6495C11.0996 25.2781 16.3651 25.4747 18.9346 25.4747C19.1242 25.8462 19.1242 26.2176 19.1242 26.4142C16.681 29.4511 12.3212 31.1115 8.67749 34.5198C7.07679 36.3769 5.26547 40.8994 6.17113 41.5767C6.82404 42.1884 10.2361 41.0742 13.0373 39.5885C16.0281 37.0542 17.2075 30.9149 20.5564 28.5553C21.2093 29.0578 21.9254 29.4292 22.8311 29.604C23.0206 32.5098 22.8311 38.1466 22.3045 39.0205C18.4923 42.3632 19.6718 48 24.0316 48C28.265 48 29.276 42.1884 25.6323 39.0205C24.5581 37.6004 25.2742 31.9636 25.6323 29.4292C26.1167 29.2544 26.8328 28.9267 27.1909 28.3805C30.7082 31.1115 31.9087 36.8575 35.068 39.5885C37.8692 41.0742 41.2181 42.1884 41.9342 41.5767C42.8398 40.8994 41.0496 36.3769 39.4278 34.5198C35.6156 31.1115 31.1926 29.6259 28.7495 26.4142C28.939 26.2176 28.939 25.8462 28.939 25.4747C31.3401 25.4747 36.6055 25.1033 39.4068 25.6714Z" fill="#AA8C67" fill-opacity="0.4"/>
</svg>
