<svg width="286" height="148" viewBox="0 0 286 148" fill="none" xmlns="http://www.w3.org/2000/svg">
<path d="M167.218 24.0107H119.199V24.8973H167.218V24.0107Z" fill="white"/>
<path d="M167.218 25.6797H119.199V26.5958H167.218V25.6797Z" fill="white"/>
<path fill-rule="evenodd" clip-rule="evenodd" d="M137.696 27.6598H149.196L154.411 28.2804H167.218V27.3643H119.199V28.2804H132.764L137.696 27.6598Z" fill="white"/>
<path fill-rule="evenodd" clip-rule="evenodd" d="M126.152 29.0791H119.199V29.9952H120.804L121.354 29.6701L126.152 29.0791Z" fill="white"/>
<path fill-rule="evenodd" clip-rule="evenodd" d="M161.662 29.0791L162.97 29.2409L167.263 29.5792V29.0791H161.662Z" fill="white"/>
<path fill-rule="evenodd" clip-rule="evenodd" d="M119.199 30.793V31.0441L119.586 30.793H119.199Z" fill="white"/>
<path fill-rule="evenodd" clip-rule="evenodd" d="M115.176 48.6859C115.161 48.4054 115.161 48.1243 115.176 47.8438H91.2561C90.9749 48.1065 90.7118 48.3879 90.4688 48.6859H115.176Z" fill="white"/>
<path fill-rule="evenodd" clip-rule="evenodd" d="M115.383 47.016C115.457 46.7205 115.502 46.425 115.591 46.1738H93.0527C92.7704 46.425 92.4733 46.7648 92.2207 47.016H115.383Z" fill="white"/>
<path fill-rule="evenodd" clip-rule="evenodd" d="M90.9103 50.4008H115.157V49.5586H90.2715L90.9103 50.4008Z" fill="white"/>
<path fill-rule="evenodd" clip-rule="evenodd" d="M174.218 52.9561H170.846V53.7983H173.327C173.59 53.4841 173.889 53.2015 174.218 52.9561Z" fill="white"/>
<path fill-rule="evenodd" clip-rule="evenodd" d="M116.897 43.5735C117.105 43.278 117.358 42.9973 117.566 42.7461H97.1372C96.7857 43.0036 96.4485 43.2798 96.127 43.5735H116.897Z" fill="white"/>
<path fill-rule="evenodd" clip-rule="evenodd" d="M121.736 40.2055C123.526 39.615 125.459 39.615 127.248 40.2055H135.672C135.87 39.906 136.094 39.6242 136.341 39.3633H102.169C101.749 39.623 101.342 39.9042 100.951 40.2055H121.736Z" fill="white"/>
<path fill-rule="evenodd" clip-rule="evenodd" d="M137.36 38.4612C137.755 38.14 138.183 37.8626 138.638 37.6338H104.942C104.481 37.885 104.006 38.1805 103.59 38.4612H137.36Z" fill="white"/>
<path fill-rule="evenodd" clip-rule="evenodd" d="M116.009 45.2874C116.143 45.0067 116.262 44.7111 116.396 44.46H95.0754C94.7545 44.7201 94.4471 44.9963 94.1543 45.2874H116.009Z" fill="white"/>
<path fill-rule="evenodd" clip-rule="evenodd" d="M118.536 41.8598C118.885 41.5384 119.269 41.256 119.68 41.0176H99.5038C99.1324 41.2688 98.746 41.6086 98.4043 41.8598H118.536Z" fill="white"/>
<path fill-rule="evenodd" clip-rule="evenodd" d="M108.089 35.9209C107.584 36.1721 107.079 36.4528 106.604 36.7483H141.117C141.737 36.6163 142.369 36.5469 143.004 36.5415C143.643 36.5522 144.279 36.6214 144.905 36.7483H180.028C179.547 36.4484 179.051 36.1723 178.542 35.9209H108.089Z" fill="white"/>
<path fill-rule="evenodd" clip-rule="evenodd" d="M111.754 34.2949C111.149 34.5402 110.558 34.8215 109.986 35.1372H176.606C176.027 34.8416 175.432 34.5461 174.838 34.2949H111.754Z" fill="white"/>
<path fill-rule="evenodd" clip-rule="evenodd" d="M134.579 41.8598C134.696 41.5662 134.84 41.2842 135.01 41.0176H129.275C129.674 41.2742 130.056 41.5555 130.419 41.8598H134.579Z" fill="white"/>
<path fill-rule="evenodd" clip-rule="evenodd" d="M155.601 41.8598C155.945 41.5385 156.323 41.2561 156.73 41.0176H151.01C151.129 41.2688 151.307 41.5643 151.426 41.8598H155.601Z" fill="white"/>
<path fill-rule="evenodd" clip-rule="evenodd" d="M133.658 47.0156V46.1143H133.361C133.495 46.4245 133.54 46.72 133.658 47.0156Z" fill="white"/>
<path fill-rule="evenodd" clip-rule="evenodd" d="M133.655 45.2874C133.661 45.0096 133.69 44.7328 133.744 44.46H132.6C132.733 44.7111 132.852 45.0067 132.986 45.2874H133.655Z" fill="white"/>
<path fill-rule="evenodd" clip-rule="evenodd" d="M152.642 46.1143H152.359V46.9565C152.406 46.6621 152.501 46.3775 152.642 46.1143Z" fill="white"/>
<path fill-rule="evenodd" clip-rule="evenodd" d="M170.799 47.8438C170.799 48.0949 170.799 48.3904 170.799 48.6859H196.056C195.759 48.3904 195.506 48.0949 195.254 47.8438H170.799Z" fill="white"/>
<path fill-rule="evenodd" clip-rule="evenodd" d="M152.227 44.46C152.227 44.7111 152.227 45.0362 152.316 45.2874H152.94C153.059 44.9999 153.204 44.7231 153.371 44.46H152.227Z" fill="white"/>
<path fill-rule="evenodd" clip-rule="evenodd" d="M153.954 43.5735C154.157 43.2784 154.386 43.0016 154.637 42.7461H151.814C151.903 43.0168 151.972 43.2933 152.022 43.5735H153.954Z" fill="white"/>
<path fill-rule="evenodd" clip-rule="evenodd" d="M133.953 43.5735C133.99 43.2855 134.075 43.0057 134.206 42.7461H131.383C131.591 42.9973 131.799 43.278 132.007 43.5735H133.953Z" fill="white"/>
<path fill-rule="evenodd" clip-rule="evenodd" d="M134.828 28.2049H151.81C146.165 27.6166 140.473 27.6166 134.828 28.2049Z" fill="white"/>
<path fill-rule="evenodd" clip-rule="evenodd" d="M128.56 29.0791C127.297 29.3007 126.034 29.6258 124.771 29.9213H161.915C160.652 29.6258 159.389 29.3007 158.081 29.0791H128.56Z" fill="white"/>
<path fill-rule="evenodd" clip-rule="evenodd" d="M121.283 30.8066C120.391 31.0135 119.515 31.3533 118.668 31.6341H167.979C167.103 31.3533 166.211 31.0135 165.335 30.8066H121.283Z" fill="white"/>
<path fill-rule="evenodd" clip-rule="evenodd" d="M116.005 32.5215C115.336 32.7727 114.623 33.0682 113.939 33.3637H172.7C171.987 33.0682 171.303 32.7727 170.59 32.5215H116.005Z" fill="white"/>
<path fill-rule="evenodd" clip-rule="evenodd" d="M147.383 37.6338C147.813 37.8736 148.22 38.1505 148.601 38.4612H183.01C182.55 38.1805 182.089 37.885 181.629 37.6338H147.383Z" fill="white"/>
<path fill-rule="evenodd" clip-rule="evenodd" d="M166.297 41.0176C166.691 41.2744 167.068 41.5557 167.426 41.8598H188.226C187.875 41.5477 187.497 41.2659 187.097 41.0176H166.297Z" fill="white"/>
<path fill-rule="evenodd" clip-rule="evenodd" d="M168.451 42.7461C168.68 43.0055 168.889 43.2821 169.075 43.5735H190.425C190.102 43.2811 189.765 43.0049 189.415 42.7461H168.451Z" fill="white"/>
<path fill-rule="evenodd" clip-rule="evenodd" d="M149.66 39.3477C149.868 39.5988 150.121 39.8943 150.344 40.1898H158.723C160.512 39.5993 162.446 39.5993 164.235 40.1898H185.719C185.332 39.9387 184.916 39.5988 184.456 39.3477H149.66Z" fill="white"/>
<path fill-rule="evenodd" clip-rule="evenodd" d="M170.428 46.1143C170.428 46.3654 170.547 46.661 170.636 46.9565H194.407C194.11 46.661 193.813 46.3654 193.516 46.1143H170.428Z" fill="white"/>
<path fill-rule="evenodd" clip-rule="evenodd" d="M169.666 44.46C169.785 44.7111 169.919 45.0067 170.037 45.2874H192.487C192.19 45.0067 191.863 44.7111 191.566 44.46H169.666Z" fill="white"/>
<path fill-rule="evenodd" clip-rule="evenodd" d="M183.1 51.2871C183.725 51.4857 184.32 51.7692 184.868 52.1293H192.222C192.6 51.7464 193.063 51.4578 193.574 51.2871H183.1Z" fill="white"/>
<path fill-rule="evenodd" clip-rule="evenodd" d="M187.025 53.7983H191.066C191.143 53.4995 191.269 53.2151 191.437 52.9561H186.178C186.482 53.2142 186.765 53.4958 187.025 53.7983Z" fill="white"/>
<path fill-rule="evenodd" clip-rule="evenodd" d="M190.886 55.512V54.9801C190.862 54.883 190.862 54.7816 190.886 54.6846H187.766C187.956 54.9519 188.125 55.2335 188.271 55.5268L190.886 55.512Z" fill="white"/>
<path fill-rule="evenodd" clip-rule="evenodd" d="M190.93 57.2263V56.458H188.791C188.791 56.7092 188.999 57.0047 189.073 57.2854L190.93 57.2263Z" fill="white"/>
<path fill-rule="evenodd" clip-rule="evenodd" d="M196.192 49.5586H170.846V50.4008H195.434L196.192 49.5586Z" fill="white"/>
<path fill-rule="evenodd" clip-rule="evenodd" d="M96.8861 58.0684H95.4004V58.9106H96.7524C96.8118 58.6151 96.8564 58.3195 96.8861 58.0684Z" fill="white"/>
<path fill-rule="evenodd" clip-rule="evenodd" d="M97.4346 56.458H95.4141V57.2854H97.1375C97.2266 56.9456 97.3603 56.6501 97.4346 56.458Z" fill="white"/>
<path fill-rule="evenodd" clip-rule="evenodd" d="M115.131 57.2263V56.458H114.537C114.626 56.7092 114.745 57.0047 114.879 57.2854L115.131 57.2263Z" fill="white"/>
<path fill-rule="evenodd" clip-rule="evenodd" d="M115.171 55.5131V54.6709H113.566C113.73 54.8925 113.908 55.2176 114.116 55.5131H115.171Z" fill="white"/>
<path fill-rule="evenodd" clip-rule="evenodd" d="M112.811 53.7983H115.129V52.9561H111.994C112.217 53.1629 112.47 53.5028 112.811 53.7983Z" fill="white"/>
<path fill-rule="evenodd" clip-rule="evenodd" d="M99.125 53.7983C99.3677 53.4856 99.647 53.2029 99.957 52.9561H94.8164C94.957 53.2254 95.0714 53.5074 95.1581 53.7983H99.125Z" fill="white"/>
<path fill-rule="evenodd" clip-rule="evenodd" d="M95.3633 54.6709V55.5131H97.889C98.0364 55.2204 98.2052 54.9389 98.3941 54.6709H95.3633Z" fill="white"/>
<path fill-rule="evenodd" clip-rule="evenodd" d="M92.7695 51.2871C93.2676 51.4757 93.7224 51.7621 94.1067 52.1293H101.312C101.876 51.7686 102.485 51.4853 103.125 51.2871H92.7695Z" fill="white"/>
<path fill-rule="evenodd" clip-rule="evenodd" d="M172.614 54.6709H170.846V55.5131H172.064C172.219 55.2153 172.403 54.9332 172.614 54.6709Z" fill="white"/>
<path fill-rule="evenodd" clip-rule="evenodd" d="M171.648 56.458H170.846V57.2854H171.306C171.425 56.9456 171.559 56.6501 171.648 56.458Z" fill="white"/>
<path fill-rule="evenodd" clip-rule="evenodd" d="M171.098 58.0684H170.846V58.9106H170.935C170.964 58.6255 171.018 58.3436 171.098 58.0684Z" fill="white"/>
<path fill-rule="evenodd" clip-rule="evenodd" d="M177.368 51.2871H170.875V52.1293H175.51C176.092 51.7735 176.716 51.4906 177.368 51.2871Z" fill="white"/>
<path fill-rule="evenodd" clip-rule="evenodd" d="M115.13 52.1293V51.2871H108.846C109.472 51.4828 110.068 51.7664 110.614 52.1293H115.13Z" fill="white"/>
<path fill-rule="evenodd" clip-rule="evenodd" d="M91.0304 50.4006L88.5938 48.066C102.158 33.9847 122.067 25.9024 143.343 25.9024C153.458 25.8936 163.486 27.7679 172.908 31.4285C182.383 35.1071 190.944 40.7831 198.002 48.066L195.521 50.4006C182.64 37.1024 163.638 29.3304 143.387 29.3304C123.003 29.3304 103.971 37.0433 91.0304 50.4006Z" fill="white"/>
<path fill-rule="evenodd" clip-rule="evenodd" d="M92.6771 59.9605L90.2852 57.5225L96.0051 51.8781C107.713 39.8063 124.932 32.9355 143.429 32.9355V36.334C125.868 36.334 109.525 42.8206 98.4418 54.257L92.6771 59.9605Z" fill="white"/>
<path fill-rule="evenodd" clip-rule="evenodd" d="M180.335 49.7792C178.726 49.778 177.138 50.1484 175.697 50.8612C174.255 51.574 173 52.6097 172.03 53.8869V49.07C172.038 46.8702 171.34 44.7253 170.039 42.9467C168.737 41.1681 166.899 39.8485 164.792 39.1797C162.685 38.5108 160.418 38.5275 158.321 39.2272C156.224 39.927 154.406 41.2735 153.131 43.071C152.538 40.8736 151.232 38.9323 149.416 37.5478C147.6 36.1634 145.376 35.4131 143.088 35.4131C140.8 35.4131 138.576 36.1634 136.76 37.5478C134.945 38.9323 133.638 40.8736 133.044 43.071C132.101 41.7037 130.837 40.5856 129.361 39.8133C127.886 39.0409 126.243 38.6376 124.576 38.6383C121.818 38.6383 119.172 39.728 117.222 41.6677C115.272 43.6074 114.176 46.2382 114.176 48.9813V54.3301C112.936 52.4852 111.133 51.0857 109.032 50.3383C106.931 49.591 104.644 49.5353 102.509 50.1796C100.374 50.8239 98.504 52.134 97.175 53.9164C95.8461 55.6987 95.1287 57.859 95.1289 60.0779H97.402C97.402 59.0185 97.6119 57.9694 98.0196 56.9906C98.4272 56.0118 99.0247 55.1224 99.778 54.3733C100.531 53.6241 101.426 53.0299 102.41 52.6244C103.394 52.219 104.449 52.0103 105.514 52.0103C106.579 52.0103 107.634 52.219 108.618 52.6244C109.603 53.0299 110.497 53.6241 111.25 54.3733C112.003 55.1224 112.601 56.0118 113.009 56.9906C113.416 57.9694 113.626 59.0185 113.626 60.0779H116.449V49.07C116.402 47.9824 116.577 46.8967 116.963 45.8782C117.349 44.8597 117.939 43.9295 118.696 43.1435C119.453 42.3575 120.363 41.7321 121.369 41.3048C122.376 40.8775 123.459 40.6572 124.554 40.6572C125.648 40.6572 126.731 40.8775 127.738 41.3048C128.745 41.7321 129.654 42.3575 130.411 43.1435C131.168 43.9295 131.758 44.8597 132.144 45.8782C132.53 46.8967 132.705 47.9824 132.658 49.07V50.1929H134.976V45.8784C134.976 43.7348 135.832 41.679 137.356 40.1633C138.88 38.6476 140.947 37.796 143.103 37.796C145.258 37.796 147.325 38.6476 148.849 40.1633C150.374 41.679 151.23 43.7348 151.23 45.8784H151.735C151.391 46.9072 151.22 47.9857 151.23 49.07H153.503C153.503 48.0086 153.713 46.9575 154.122 45.9769C154.53 44.9964 155.129 44.1054 155.883 43.3548C156.638 42.6043 157.534 42.009 158.52 41.6028C159.506 41.1967 160.563 40.9876 161.63 40.9876C162.697 40.9876 163.754 41.1967 164.74 41.6028C165.726 42.009 166.622 42.6043 167.376 43.3548C168.131 44.1054 168.73 44.9964 169.138 45.9769C169.547 46.9575 169.757 48.0086 169.757 49.07V60.1666H172.208C172.161 59.0791 172.336 57.9934 172.722 56.9749C173.109 55.9564 173.698 55.0261 174.455 54.2401C175.212 53.4541 176.122 52.8286 177.128 52.4014C178.135 51.9741 179.218 51.7538 180.313 51.7538C181.407 51.7538 182.49 51.9741 183.497 52.4014C184.504 52.8286 185.413 53.4541 186.17 54.2401C186.928 55.0261 187.517 55.9564 187.903 56.9749C188.289 57.9934 188.464 59.0791 188.417 60.1666H190.735C190.741 58.8046 190.476 57.4548 189.956 56.1948C189.436 54.9348 188.671 53.7894 187.705 52.8242C186.739 51.8591 185.59 51.0933 184.325 50.5707C183.061 50.0481 181.705 49.7792 180.335 49.7792Z" fill="white"/>
<path d="M153.536 43.7363H151.219V50.2229H153.536V43.7363Z" fill="white"/>
<path fill-rule="evenodd" clip-rule="evenodd" d="M171.125 74.6911L172.105 73.775V72.7259V70.879V69.8299L171.125 68.9581L172.358 67.7761L171.05 66.5201L172.105 65.471V64.4367V62.5454V61.5407L172.061 61.4963V60.4473H169.877V61.7475V62.5454V64.4367V65.471L170.872 66.5201L169.579 67.7761L170.753 68.9581L169.877 69.8299V70.879V72.7259V73.775L170.798 74.6911L169.579 75.8584L170.709 77.0405L169.49 78.5033V82.478H172.358V78.5033L171.169 77.0405L172.358 75.8584L171.125 74.6911Z" fill="white"/>
<path fill-rule="evenodd" clip-rule="evenodd" d="M189.787 74.529L190.767 73.5981V72.5491V70.7169V69.6678L189.787 68.7369L191.02 67.6139L189.712 66.358L190.767 65.3089V64.2598V62.3833V61.3638L189.623 60.2852L188.524 61.3638V62.3833V64.2598V65.3089L189.534 66.358L188.227 67.6139L189.415 68.7369L188.524 69.6678V70.7169V72.5491V73.5981L189.46 74.529L188.227 75.6963L189.371 76.8636L188.152 78.3412V82.3158H191.02V78.3412L189.831 76.8636L191.02 75.6963L189.787 74.529Z" fill="white"/>
<path fill-rule="evenodd" clip-rule="evenodd" d="M152.348 49.9717L150.966 51.2719L152.184 52.454L151.263 53.3701V54.4192V56.2662V57.3152L152.274 58.3643L150.966 59.6203L152.095 60.6989L151.263 61.5411V62.5459V64.4372V65.4271L152.274 66.4319L150.966 67.7026L152.14 68.8699L151.263 69.7564V70.7908V72.6377V73.6868L152.184 74.6472L150.966 75.785L152.14 76.9079L150.877 78.3707V82.3602H153.744V78.3707L152.556 76.9079L153.744 75.785L152.526 74.6472L153.492 73.6868V72.6377V70.7908V69.7564L152.526 68.8699L153.744 67.7026L152.437 66.4319L153.492 65.4271V64.4372V62.5459V61.5411L152.6 60.6989L153.744 59.6203L152.437 58.3643L153.492 57.3152V56.2662V54.4192V53.3701L152.526 52.454L153.744 51.2719L152.348 49.9717Z" fill="white"/>
<path d="M133.779 80.8086H96.8887V81.5622H133.779V80.8086Z" fill="white"/>
<path fill-rule="evenodd" clip-rule="evenodd" d="M115.119 77.0405L116.308 75.8584L115.089 74.6911L116.01 73.775V72.7259V70.879V69.8299L115.089 68.9581L116.308 67.7761L115 66.5201L116.01 65.471V64.4367V62.5454V61.5407L114.911 60.4473L113.782 61.5407V62.5454V64.4367V65.471L114.837 66.5201L113.529 67.7761L114.748 68.9581L113.782 69.8299V70.879V72.7259V73.775L114.748 74.6911L113.529 75.8584L114.703 77.0405L113.529 78.5033V82.478H116.397V78.5033L115.119 77.0405Z" fill="white"/>
<path d="M116.006 60.4473H113.822V61.7919H116.006V60.4473Z" fill="white"/>
<path fill-rule="evenodd" clip-rule="evenodd" d="M96.5448 76.7016L97.7334 75.5343L96.5002 74.3522L97.4362 73.4362V72.3871V70.5401V69.491L96.5002 68.6192L97.7334 67.452L96.4259 66.1812L97.4362 65.1469V64.0979V62.2066V61.2018L96.3368 60.1084L95.2077 61.2018V62.2066V64.0979V65.1469L96.2477 66.1812L94.9551 67.452L96.1734 68.6192L95.2077 69.491V70.5401V72.3871V73.4362L96.1734 74.3522L94.9551 75.5343L96.1288 76.7016L94.9551 78.1644V82.1539H97.8077V78.1644L96.5448 76.7016Z" fill="white"/>
<path fill-rule="evenodd" clip-rule="evenodd" d="M134.159 76.9079L135.333 75.785L134.115 74.6472L135.036 73.6868V72.6377V70.7908V69.7564L134.115 68.8699L135.333 67.7026L134.026 66.4319L135.036 65.4271V64.4372V62.5459V61.5411L134.189 60.6989L135.333 59.6203L134.026 58.3643L135.036 57.3152V56.2662V54.4192V53.3701L134.115 52.454L135.333 51.2719L133.951 49.9717L132.555 51.2719L133.773 52.454L132.807 53.3701V54.4192V56.2662V57.3152L133.862 58.3643L132.555 59.6203L133.699 60.6989L132.807 61.5411V62.5459V64.4372V65.4271L133.862 66.4319L132.555 67.7026L133.728 68.8699L132.807 69.7564V70.7908V72.6377V73.6868L133.773 74.6472L132.555 75.785L133.728 76.9079L132.555 78.3707V82.3602H135.422V78.3707L134.159 76.9079Z" fill="white"/>
<path fill-rule="evenodd" clip-rule="evenodd" d="M130.281 90.4414H155.969V89.7322H130.281V90.4414ZM130.741 88.5206H130.281V89.2298H155.969V88.5206H130.712H130.741ZM155.003 87.2646H131.306V87.9738H155.077L155.003 87.2646ZM155.003 86.0087H131.306V86.7623H155.077L155.003 86.0087ZM153.443 84.7527H132.792V85.462H153.443V84.7527ZM153.443 83.5411H132.792V84.2504H153.443V83.5411ZM153.443 82.2704H132.792V83.0535H153.443V82.2704ZM192.577 90.9881H93.3457V81.4873H192.577V90.9881Z" fill="white"/>
<path fill-rule="evenodd" clip-rule="evenodd" d="M120.934 73.9824H116.417L116.298 74.0563L115.793 74.6917V74.736H120.934V73.9824Z" fill="white"/>
<path fill-rule="evenodd" clip-rule="evenodd" d="M97.8516 72.3865V73.0514H113.348V72.7707V72.2979H97.8516V72.3865Z" fill="white"/>
<path fill-rule="evenodd" clip-rule="evenodd" d="M120.968 75.6953H116.808L116.927 75.8283L116.6 76.1977L116.422 76.4489H120.968V75.6953Z" fill="white"/>
<path fill-rule="evenodd" clip-rule="evenodd" d="M116.006 62.6641V62.0879H113.822V62.6641V62.8415H116.006V62.6641Z" fill="white"/>
<path fill-rule="evenodd" clip-rule="evenodd" d="M113.348 70.8795V70.584H97.8516V71.3375H113.348V70.8795Z" fill="white"/>
<path fill-rule="evenodd" clip-rule="evenodd" d="M132.218 76.2863L131.846 75.8283L132.01 75.6953H128.266V76.4489H132.426L132.218 76.2863Z" fill="white"/>
<path fill-rule="evenodd" clip-rule="evenodd" d="M132.345 62.6641V62.0879H116.463V62.6641V62.8415H132.345V62.6641Z" fill="white"/>
<path fill-rule="evenodd" clip-rule="evenodd" d="M133.02 68.8711H128.266V69.6247H132.426L132.559 69.4917L133.065 68.8711H133.02Z" fill="white"/>
<path fill-rule="evenodd" clip-rule="evenodd" d="M122.112 63.8467H116.451V64.6003H121.517C121.663 64.3125 121.866 64.0563 122.112 63.8467Z" fill="white"/>
<path fill-rule="evenodd" clip-rule="evenodd" d="M121.054 65.4863H116.448V65.7375L116.315 65.8557L116.018 66.2399H120.906C120.937 65.9855 120.987 65.7337 121.054 65.4863Z" fill="white"/>
<path fill-rule="evenodd" clip-rule="evenodd" d="M116.006 70.8795V70.584H113.822V70.8795V71.3375H116.006V70.8795Z" fill="white"/>
<path fill-rule="evenodd" clip-rule="evenodd" d="M128.266 67.9538H132.01L131.891 67.8208L132.262 67.4514L132.47 67.2002H128.266V67.9538Z" fill="white"/>
<path fill-rule="evenodd" clip-rule="evenodd" d="M132.353 64.5264V63.8467H127.094C127.322 64.0728 127.522 64.3259 127.688 64.6003L132.353 64.5264Z" fill="white"/>
<path fill-rule="evenodd" clip-rule="evenodd" d="M114.03 74.736L113.48 74.0563L113.346 73.9824H97.4788L97.1816 74.3075L97.5085 74.736H113.985H114.03Z" fill="white"/>
<path fill-rule="evenodd" clip-rule="evenodd" d="M97.6846 69.1223L97.8034 69.2848V69.536V69.6247H113.389L113.522 69.4917L114.028 68.8711H113.983H97.4766L97.6846 69.1223Z" fill="white"/>
<path fill-rule="evenodd" clip-rule="evenodd" d="M97.8965 67.9538H112.977L112.843 67.8208L113.229 67.4514L113.437 67.2002H98.0599L98.3125 67.4514L97.9856 67.8651L97.8965 67.9538Z" fill="white"/>
<path fill-rule="evenodd" clip-rule="evenodd" d="M98.1451 75.6953L97.9817 75.8283L97.4766 76.4489H113.389L113.181 76.2863L112.839 75.8283L112.973 75.6953H98.1451Z" fill="white"/>
<path fill-rule="evenodd" clip-rule="evenodd" d="M132.394 65.4863H128.145C128.169 65.7369 128.169 65.9893 128.145 66.2399H132.795L132.498 65.8557L132.334 65.7375L132.394 65.4863Z" fill="white"/>
<path fill-rule="evenodd" clip-rule="evenodd" d="M114.07 73.9824L114.739 74.736H115.11L115.794 73.9824H114.07Z" fill="white"/>
<path fill-rule="evenodd" clip-rule="evenodd" d="M132.396 70.8795V70.584H128.266V71.3375H132.396V70.8795Z" fill="white"/>
<path fill-rule="evenodd" clip-rule="evenodd" d="M116.463 70.8795V71.3375H120.965V70.584H116.463V70.8795Z" fill="white"/>
<path fill-rule="evenodd" clip-rule="evenodd" d="M116.006 72.7707V72.2979H113.822V72.7707V73.0514H116.006V72.7707Z" fill="white"/>
<path fill-rule="evenodd" clip-rule="evenodd" d="M116.463 72.7707V73.0514H120.965V72.2979H116.463V72.7707Z" fill="white"/>
<path fill-rule="evenodd" clip-rule="evenodd" d="M115.793 68.8711L116.298 69.4917L116.387 69.6247H120.934V68.8711H115.838H115.793Z" fill="white"/>
<path fill-rule="evenodd" clip-rule="evenodd" d="M120.967 67.9538V67.2002H116.391L116.599 67.4514L116.925 67.8208L116.851 67.9538H120.967Z" fill="white"/>
<path fill-rule="evenodd" clip-rule="evenodd" d="M132.396 72.7707V72.2979H128.266V73.0514H132.396V72.7707Z" fill="white"/>
<path fill-rule="evenodd" clip-rule="evenodd" d="M133.065 74.736L132.515 74.0563L132.396 73.9824H128.266V74.736H133.02H133.065Z" fill="white"/>
<path fill-rule="evenodd" clip-rule="evenodd" d="M132.811 78.1637H133.776V77.4102H133.405L132.811 78.1637Z" fill="white"/>
<path d="M133.818 79.124H132.555V79.8776H133.818V79.124Z" fill="white"/>
<path fill-rule="evenodd" clip-rule="evenodd" d="M116.168 77.4102L116.718 78.1637H132.214L132.763 77.4102H116.168Z" fill="white"/>
<path d="M116.397 79.124H113.529V79.8776H116.397V79.124Z" fill="white"/>
<path d="M132.049 79.124H116.85V79.8776H132.049V79.124Z" fill="white"/>
<path d="M116.006 63.7568H113.822V64.5104H116.006V63.7568Z" fill="white"/>
<path fill-rule="evenodd" clip-rule="evenodd" d="M97.8516 77.4102L98.1487 77.7943L98.2379 77.9125V78.1637H113.184L113.734 77.4102H97.8516Z" fill="white"/>
<path fill-rule="evenodd" clip-rule="evenodd" d="M132.854 64.5104H133.819V63.7568H132.854V64.5104Z" fill="white"/>
<path fill-rule="evenodd" clip-rule="evenodd" d="M132.854 72.7707V73.0514H133.819V72.2979H132.854V72.7707Z" fill="white"/>
<path fill-rule="evenodd" clip-rule="evenodd" d="M132.854 62.0879V62.6641V62.8415H133.819V62.0879H132.854Z" fill="white"/>
<path fill-rule="evenodd" clip-rule="evenodd" d="M132.854 70.8795V71.3375H133.819V70.584H132.854V70.8795Z" fill="white"/>
<path fill-rule="evenodd" clip-rule="evenodd" d="M133.735 68.8711L133.066 69.6247H133.78V68.8711H133.705H133.735Z" fill="white"/>
<path d="M113.113 79.124H98.2852V79.8776H113.113V79.124Z" fill="white"/>
<path fill-rule="evenodd" clip-rule="evenodd" d="M96.8887 65.4717V65.6933L97.0521 65.4717H96.8887Z" fill="white"/>
<path fill-rule="evenodd" clip-rule="evenodd" d="M97.3938 64.141V63.7568H96.8887V64.5104H97.3938V64.141Z" fill="white"/>
<path fill-rule="evenodd" clip-rule="evenodd" d="M97.0898 66.2252H113.819L113.522 65.8558L113.344 65.7229V65.4717H97.7287H97.6841L97.0898 66.2252Z" fill="white"/>
<path fill-rule="evenodd" clip-rule="evenodd" d="M113.348 62.6641V62.0879H97.8516V62.2948V62.8415H113.348V62.6641Z" fill="white"/>
<path fill-rule="evenodd" clip-rule="evenodd" d="M113.348 64.5104V63.7568H97.8516V64.141V64.5104H113.348Z" fill="white"/>
<path fill-rule="evenodd" clip-rule="evenodd" d="M97.3938 62.2948V62.0879H96.8887V62.8415H97.3938V62.2948Z" fill="white"/>
<path d="M97.7801 79.124H96.8887V79.8776H97.7801V79.124Z" fill="white"/>
<path fill-rule="evenodd" clip-rule="evenodd" d="M96.8887 77.4102V78.1637H97.7801L97.1412 77.4102H96.8887Z" fill="white"/>
<path fill-rule="evenodd" clip-rule="evenodd" d="M96.8887 75.6953V76.2854L97.483 75.6953H96.8887Z" fill="white"/>
<path fill-rule="evenodd" clip-rule="evenodd" d="M97.3938 69.4897L96.8887 69.0029V69.5783H97.3938V69.4897Z" fill="white"/>
<path fill-rule="evenodd" clip-rule="evenodd" d="M97.3938 72.3865V72.2979H96.8887V73.0514H97.3938V72.3865Z" fill="white"/>
<path fill-rule="evenodd" clip-rule="evenodd" d="M97.6464 67.4514L97.3938 67.2002H96.8887V67.9538H97.1412L97.6464 67.4514Z" fill="white"/>
<path d="M97.3938 70.584H96.8887V71.3375H97.3938V70.584Z" fill="white"/>
<path fill-rule="evenodd" clip-rule="evenodd" d="M128.767 77.4982H120.477V66.5346C120.477 65.4412 120.913 64.3926 121.691 63.6195C122.468 62.8464 123.522 62.4121 124.622 62.4121C125.721 62.4121 126.775 62.8464 127.553 63.6195C128.33 64.3926 128.767 65.4412 128.767 66.5346V77.4982ZM121.338 76.6264H127.875V66.5346C127.875 65.6724 127.531 64.8456 126.918 64.236C126.305 63.6264 125.474 63.2839 124.607 63.2839C123.74 63.2839 122.909 63.6264 122.296 64.236C121.683 64.8456 121.338 65.6724 121.338 66.5346V76.6264Z" fill="white"/>
<path fill-rule="evenodd" clip-rule="evenodd" d="M127.936 73.5245L128.263 72.4311L127.847 72.2686L127.683 72.771L127.505 72.2686H128.055V71.8105H120.626V72.0174L120.418 72.106L120.789 73.362L120.418 74.6918L120.834 74.8248L121.042 74.1156L121.636 76.0364L121.25 77.2923L121.681 77.4253L121.889 76.79L122.052 77.4253L122.528 77.2923L122.097 76.0364L122.691 74.1156L123.285 76.0364L122.899 77.2923L123.315 77.4253L123.538 76.79L123.746 77.4253L124.162 77.2923L123.791 76.0364L124.415 74.1156L125.009 76.0364L124.623 77.2923L125.053 77.4253L125.261 76.79L125.425 77.4253L125.885 77.2923L125.469 76.0364L126.064 74.1156L126.643 75.9921L126.272 77.2923L126.688 77.4253L126.896 76.7456L127.104 77.4253L127.535 77.2923L127.148 75.9921L127.624 74.2781L127.876 75.1203C127.9 74.84 127.9 74.5583 127.876 74.2781C127.875 74.1036 127.916 73.9313 127.995 73.7757L127.936 73.5245ZM126.242 72.2686L126.123 72.6084L126.034 72.2686H126.242ZM124.563 72.2686L124.474 72.6084L124.311 72.2686H124.563ZM122.869 72.2686L122.751 72.6084L122.661 72.2686H122.869ZM120.983 72.2686H121.191L121.101 72.6084L120.983 72.2686ZM121.948 75.2237L121.309 73.3029L121.696 72.2095H122.201L122.543 73.3029L121.948 75.2237ZM123.597 75.2237L123.003 73.3029L123.345 72.2095H123.88L124.207 73.3029L123.597 75.2237ZM125.321 75.2237L124.682 73.3029L125.068 72.2095H125.573L125.9 73.3029L125.321 75.2237ZM126.955 75.2237L126.376 73.3472L126.703 72.2538H127.044L127.46 73.5098L126.955 75.2237Z" fill="white"/>
<path fill-rule="evenodd" clip-rule="evenodd" d="M143.089 13.9629C153.236 17.6864 162.76 20.4642 172.521 23.2569H113.775C123.462 20.4642 132.986 17.6864 143.089 13.9629Z" fill="white"/>
<path fill-rule="evenodd" clip-rule="evenodd" d="M153.19 7.27031C151.705 5.88138 143.043 7.093 143.043 7.093V3.26608C143.043 3.26608 152.061 3.0149 154.245 4.89143C154.156 5.08351 153.398 6.84181 153.19 7.27031Z" fill="white"/>
<path fill-rule="evenodd" clip-rule="evenodd" d="M153.594 6.04297C153.416 6.51579 152.45 8.82082 152.539 8.7765C155.19 8.61592 157.825 9.28782 160.072 10.6973C158.6 8.36973 156.278 6.70107 153.594 6.04297Z" fill="white"/>
<path fill-rule="evenodd" clip-rule="evenodd" d="M144.231 1.47758L143.043 0L141.869 1.55144L142.716 2.64483V14.7905H143.429V2.64483L144.276 1.59576C144.261 1.52189 144.231 1.52191 144.231 1.47758Z" fill="white"/>
<path fill-rule="evenodd" clip-rule="evenodd" d="M135.973 59.6187H150.37L150.712 59.2352L150.964 58.9844H135.379L135.631 59.2352L135.973 59.6187Z" fill="white"/>
<path fill-rule="evenodd" clip-rule="evenodd" d="M131.937 59.6187L132.219 59.2352L132.516 58.9844H97.2305V59.6187H131.937Z" fill="white"/>
<path fill-rule="evenodd" clip-rule="evenodd" d="M154.044 59.2352L154.37 59.6187H189.627V58.9844H153.791L154.044 59.2352Z" fill="white"/>
<path fill-rule="evenodd" clip-rule="evenodd" d="M174.132 60.3291H171.562H170.388H167.773H153.703L153.332 60.6985L153.793 61.2009L153.911 61.3634V61.4964H167.773H169.363H170.002H171.978H172.572H174.132H188.068V61.4077V61.2009L188.202 61.0827L188.915 60.3291H174.132Z" fill="white"/>
<path fill-rule="evenodd" clip-rule="evenodd" d="M133.149 58.3935L132.689 57.8477H96.2441V58.482H133.06L133.149 58.3935Z" fill="white"/>
<path fill-rule="evenodd" clip-rule="evenodd" d="M153.605 57.8477L153.145 58.3935L153.234 58.482H189.619V57.8477H153.605Z" fill="white"/>
<path fill-rule="evenodd" clip-rule="evenodd" d="M97.0449 60.3291L98.1889 61.4964H132.42V61.3634L132.598 61.2452L133.014 60.6985L132.643 60.3291H97.0449Z" fill="white"/>
<path fill-rule="evenodd" clip-rule="evenodd" d="M151.518 58.482L151.592 58.3935L151.132 57.8477H135.22L134.744 58.3935L134.833 58.482H151.518Z" fill="white"/>
<path fill-rule="evenodd" clip-rule="evenodd" d="M135.291 60.3291L134.92 60.6985L135.38 61.2009L135.499 61.3634V61.4964H150.832V61.3634L150.995 61.2452L151.426 60.6985L151.04 60.3291H135.291Z" fill="white"/>
<path fill-rule="evenodd" clip-rule="evenodd" d="M177.337 122.335C173.704 119.742 172.027 115.828 172.027 110.085C172.029 106.991 172.496 103.916 173.413 100.96H177.302V106.379L181.423 106.252L181.493 96.9307L169.85 97.417V97.5791C168.355 101.663 167.567 105.97 167.521 110.316C167.521 117.796 170.001 122.752 175.602 126.434H175.672L181.412 125.902L181.575 115.921L177.453 116.036L177.337 122.335Z" fill="white"/>
<path fill-rule="evenodd" clip-rule="evenodd" d="M197.866 104.248L189.017 104.538V104.642C185.746 110.779 185.117 116.846 185.152 124.037V126.353L189.541 126.248V126.052C189.558 125.766 189.558 125.48 189.541 125.195V124.373C189.541 117.228 190.31 112.041 192.091 108.162H193.756L194.478 126.179V126.411L198.867 126.248L198.273 115.225L197.866 104.248Z" fill="white"/>
<path fill-rule="evenodd" clip-rule="evenodd" d="M213.638 104.27L213.568 104.108L208.911 104.409H208.806C204.149 106.864 202.076 110.025 202.076 114.518C202.239 117.388 202.82 120.22 203.799 122.925C204.125 124.001 204.486 125.113 204.812 126.329L204.882 126.503L209.539 126.201H209.632C214.29 123.712 216.397 120.586 216.397 116.162C216.224 113.187 215.6 110.256 214.546 107.466C214.266 106.413 213.94 105.359 213.638 104.27ZM206.407 113.997C206.407 111.334 207.502 109.527 210.11 108.022C210.343 108.937 210.599 109.829 210.797 110.616C211.48 112.574 211.891 114.615 212.019 116.683C212.045 117.913 211.709 119.123 211.054 120.166C210.398 121.209 209.451 122.039 208.328 122.554C208.061 121.57 207.793 120.655 207.572 119.868C206.918 117.972 206.526 115.997 206.407 113.997Z" fill="white"/>
<path fill-rule="evenodd" clip-rule="evenodd" d="M231.467 105.615L227.404 105.869L223.643 110.825C223.806 105.279 225.855 102.824 232.748 99.6628L232.923 99.5702L231.758 96.1543L231.526 96.2238C222.642 99.9291 219.545 104.167 219.545 112.435C219.572 117.182 220.608 121.869 222.584 126.191V126.353L227.672 126.086C231.84 123.4 233.784 120.054 233.784 115.526C233.646 112.158 232.855 108.847 231.456 105.777L231.467 105.615ZM229.453 116.117C229.483 117.436 229.167 118.741 228.536 119.902C227.905 121.063 226.981 122.041 225.855 122.74C224.938 120.403 224.286 117.972 223.911 115.492L228.231 110.431C228.97 112.257 229.384 114.196 229.453 116.163V116.117Z" fill="white"/>
<path fill-rule="evenodd" clip-rule="evenodd" d="M248.192 104.27V104.108L243.477 104.409H243.372C238.715 106.864 236.643 110.025 236.643 114.518C236.807 117.387 237.383 120.218 238.354 122.925C238.692 124.001 239.053 125.113 239.379 126.329L239.449 126.503L244.106 126.201H244.211C248.868 123.712 250.975 120.586 250.975 116.162C250.792 113.192 250.18 110.263 249.159 107.466C248.821 106.413 248.472 105.359 248.192 104.27ZM240.962 113.997C240.962 111.334 242.057 109.527 244.665 108.022C244.897 108.937 245.154 109.829 245.352 110.616C246.015 112.576 246.407 114.618 246.516 116.683C246.541 117.913 246.206 119.123 245.55 120.166C244.895 121.209 243.948 122.039 242.825 122.554C242.557 121.57 242.289 120.655 242.057 119.868C241.431 117.968 241.063 115.994 240.962 113.997Z" fill="white"/>
<path fill-rule="evenodd" clip-rule="evenodd" d="M266.904 122.427L266.578 114.611L266.276 104.189L257.788 104.456L257.718 104.595C255.308 109.643 254.225 115.016 254.12 122.485L251.885 122.415V126.19H265.309L263.097 130.231L266.73 132.037L269.734 126.387L269.407 122.288L266.904 122.427ZM262.154 108.045L262.655 122.589L260.605 122.693L258.393 122.589C258.393 116.162 259.15 111.658 260.838 108.045H262.154Z" fill="white"/>
<path fill-rule="evenodd" clip-rule="evenodd" d="M285.886 125.844C285.816 125.381 285.362 120.622 285.258 115.423L285.095 104.226L279.622 104.388H279.552C273.871 107.144 271.402 111.057 271.402 117.021C271.458 120.158 271.936 123.273 272.823 126.284V126.446L276.921 126.214L281.276 121.363L281.508 126.55L285.898 126.122L285.886 125.844ZM280.938 116.882L276.479 121.71C276.05 120.044 275.82 118.334 275.792 116.615C275.678 114.875 276.088 113.141 276.969 111.633C277.85 110.126 279.163 108.913 280.74 108.151L280.938 116.882Z" fill="white"/>
<path fill-rule="evenodd" clip-rule="evenodd" d="M35.1036 115.387L34.9406 104.189L29.4567 104.363C23.775 107.119 21.3066 111.021 21.3066 116.996C21.379 120.132 21.8563 123.245 22.7271 126.259V126.421L26.8254 126.201L31.1799 121.338L31.4128 126.526L35.8022 126.097V125.866C35.6625 125.403 35.1967 120.667 35.1036 115.387ZM30.7841 116.892L26.3248 121.72C25.8877 120.06 25.6531 118.353 25.6261 116.637C25.5116 114.898 25.9227 113.166 26.8067 111.661C27.6906 110.157 29.0068 108.95 30.5861 108.196L30.7841 116.892Z" fill="white"/>
<path fill-rule="evenodd" clip-rule="evenodd" d="M54.444 104.353H49.5889L46.5151 112.007L42.8941 103.565L38.5629 104.943L43.3831 115.087L38.3301 126.284H43.1503L46.3521 118.144L50.1477 127.036L54.4789 125.693L49.519 115.052L54.444 104.353Z" fill="white"/>
<path fill-rule="evenodd" clip-rule="evenodd" d="M67.415 104.26L67.3452 104.098L62.688 104.387H62.5832C57.926 106.819 55.8535 109.968 55.8535 114.461C56.0158 117.33 56.5922 120.161 57.5651 122.867C57.9027 123.956 58.2636 125.068 58.5896 126.283L58.6594 126.445L63.3167 126.156H63.3866C68.0438 123.655 70.1512 120.54 70.1512 116.105C69.9681 113.135 69.3564 110.206 68.3349 107.409C68.0089 106.39 67.741 105.348 67.415 104.26ZM60.1848 113.975C60.1848 111.323 61.2792 109.517 63.8872 108C64.1201 108.926 64.3762 109.806 64.5741 110.594C65.2585 112.555 65.6698 114.6 65.7966 116.673C65.7966 119.232 64.6323 121.061 62.1058 122.543C61.838 121.559 61.5702 120.644 61.3723 119.857C60.7021 117.961 60.3024 115.981 60.1848 113.975Z" fill="white"/>
<path fill-rule="evenodd" clip-rule="evenodd" d="M84.1797 113.975C84.9535 113.406 85.5893 112.671 86.0406 111.826C86.4919 110.98 86.7472 110.045 86.7878 109.089C86.7878 107.12 85.7282 105.673 83.1202 104.133H83.062L77.9391 104.457C76.311 105.753 75.0117 107.411 74.1461 109.297C73.2805 111.184 72.8728 113.246 72.9559 115.318C73.0109 119.181 74.0827 122.962 76.0645 126.284L76.1344 126.411L81.1758 126.191H81.2457C85.4022 124.281 87.5795 121.884 87.5795 119.244C87.5446 117.321 86.4851 115.689 84.1797 113.975ZM80.5471 107.479C81.7114 108.267 82.2353 108.95 82.2353 109.737C82.2353 111.451 79.7903 113.026 77.1823 114.693L77.1124 114.762C77.1017 113.37 77.4047 111.994 77.9991 110.733C78.5934 109.473 79.4641 108.361 80.5471 107.479ZM78.1021 118.074C79.1034 117.46 80.0581 116.916 80.943 116.303C81.4713 116.63 81.9186 117.072 82.2512 117.595C82.5839 118.118 82.7934 118.71 82.8641 119.325C82.8641 120.668 81.8046 121.791 79.4992 122.798C78.6646 121.411 78.0075 119.925 77.5432 118.375L78.1021 118.074Z" fill="white"/>
<path fill-rule="evenodd" clip-rule="evenodd" d="M98.4669 108.393V112.596L102.565 112.504L102.658 104.225L97.5821 104.387H97.4773C92.692 106.297 90.084 109.933 90.084 114.634C90.084 119.162 92.3311 122.242 95.172 126.156L95.4281 126.515L101.25 126.156L101.506 125.102C102.208 122.62 102.599 120.061 102.67 117.483V117.263H98.6067V117.483C98.6013 119.128 98.3661 120.765 97.9081 122.346C97.7101 122.045 97.5122 121.756 97.3142 121.431C95.9986 119.393 94.5432 117.124 94.5432 114.206C94.4957 112.949 94.8499 111.709 95.5548 110.665C96.2597 109.621 97.2792 108.825 98.4669 108.393Z" fill="white"/>
<path fill-rule="evenodd" clip-rule="evenodd" d="M119.889 104.457V104.225L115.407 104.457V104.653C115.407 108.625 114.743 111.219 111.18 114.009V113.454C111.18 110.397 111.273 107.907 111.343 106.298C111.343 105.441 111.413 104.758 111.413 104.329V104.098L106.756 104.526V106.772C106.826 108.845 106.861 111.995 106.861 115.573V126.237H111.273V124.767C111.273 123.423 111.273 121.119 111.273 118.687L112.519 117.9L116.28 126.341H121.566L116.024 115.248C119.598 111.775 119.889 108.301 119.889 104.457Z" fill="white"/>
<path fill-rule="evenodd" clip-rule="evenodd" d="M137.25 115.387L137.087 104.189L131.638 104.363H131.545C125.863 107.119 123.395 111.021 123.395 116.996C123.462 120.131 123.936 123.245 124.803 126.259V126.421L128.902 126.201L133.256 121.338L133.524 126.526L137.878 126.097V125.866C137.867 125.403 137.354 120.667 137.25 115.387ZM132.93 116.892L128.471 121.72C128.037 120.06 127.806 118.353 127.784 116.637C127.668 114.9 128.078 113.168 128.959 111.664C129.841 110.159 131.155 108.952 132.732 108.196L132.93 116.892Z" fill="white"/>
<path fill-rule="evenodd" clip-rule="evenodd" d="M149.624 104.364C144.373 105.638 141.8 107.907 141.8 111.253C141.846 112.448 142.188 113.613 142.798 114.644C143.408 115.675 144.265 116.539 145.293 117.159L140.799 126.248H145.922L149.019 119.093C149.601 119.343 150.195 119.563 150.8 119.753V126.248H155.329L155.19 115.827L155.329 104.248L149.624 104.364ZM150.882 115.549C148.006 114.53 146.387 112.956 146.387 111.253C146.387 109.551 147.773 108.59 150.812 107.965L150.882 115.549Z" fill="white"/>
<path fill-rule="evenodd" clip-rule="evenodd" d="M19.1631 122.185L16.5901 122.347L16.0544 97.1388V96.9072L7.4037 97.2662V97.4051C4.10873 103.635 2.65334 110.501 2.65334 119.626C2.65334 120.54 2.65334 121.49 2.65334 122.439L0.103516 122.347V122.416L0.33639 126.249L0.674012 131.17H3.93404L3.84095 126.214H15.2511L13.7025 129.954L17.3352 131.506L19.4775 126.318L19.1631 122.185ZM8.96383 122.706L6.94961 122.636C6.94961 121.362 6.87975 120.181 6.87975 119C6.87975 111.416 7.90434 105.707 10.0816 100.948H11.863L12.2355 122.544L8.96383 122.706Z" fill="white"/>
<path fill-rule="evenodd" clip-rule="evenodd" d="M94.8169 143.009C95.916 142.177 97.3033 141.765 98.7058 141.856C100.873 141.856 101.534 142.892 102.749 143.009C103.892 143.123 105.042 143.167 106.192 143.141C106.668 143.141 106.853 143.71 106.192 143.71C105.059 143.646 103.922 143.675 102.795 143.797C101.534 143.958 100.873 144.995 98.7366 145.038C97.3464 145.104 95.9712 144.74 94.8169 144.002C94.2174 143.637 94.3404 143.345 94.8169 143.009ZM107.76 144.834C106.899 145.739 106.637 147.651 104.885 147.899C104.316 147.899 104.147 147.607 104.316 147.067C104.793 145.33 107.237 144.148 108.682 143.506C108.897 143.506 108.805 143.345 108.682 143.301C107.237 142.717 104.747 141.52 104.27 139.783C104.101 139.243 104.27 138.922 104.839 138.951C106.591 139.199 106.853 141.112 107.713 142.017C108.088 142.44 108.569 142.766 109.112 142.965C109.195 143.014 109.263 143.081 109.31 143.162C109.358 143.242 109.383 143.333 109.383 143.425C109.383 143.517 109.358 143.608 109.31 143.689C109.263 143.769 109.195 143.837 109.112 143.885C108.592 144.101 108.13 144.425 107.76 144.834ZM111.034 144.834C110.158 145.739 109.85 147.651 108.159 147.899C107.544 147.899 107.421 147.607 107.544 147.067C108.067 145.33 110.511 144.148 111.941 143.506C112.171 143.506 112.079 143.345 111.941 143.301C110.511 142.717 108.021 141.52 107.498 139.783C107.375 139.243 107.498 138.922 108.113 138.951C109.804 139.199 110.111 141.112 110.988 142.017C111.362 142.44 111.843 142.766 112.386 142.965C112.469 143.014 112.537 143.081 112.585 143.162C112.632 143.242 112.657 143.333 112.657 143.425C112.657 143.517 112.632 143.608 112.585 143.689C112.537 143.769 112.469 143.837 112.386 143.885C111.866 144.101 111.404 144.425 111.034 144.834ZM114.6 142.352C114.729 142.36 114.856 142.391 114.972 142.445C115.088 142.499 115.192 142.574 115.278 142.667C115.364 142.759 115.429 142.866 115.471 142.983C115.513 143.099 115.53 143.222 115.522 143.345C115.535 143.471 115.521 143.598 115.481 143.718C115.441 143.839 115.377 143.951 115.291 144.047C115.205 144.144 115.099 144.223 114.981 144.281C114.862 144.338 114.733 144.372 114.6 144.381C114.123 144.381 113.77 143.929 113.77 143.345C113.743 143.114 113.811 142.881 113.96 142.697C114.109 142.512 114.327 142.388 114.569 142.352H114.6ZM116.952 143.009C118.064 142.18 119.46 141.769 120.871 141.856C123.008 141.856 123.715 142.892 124.929 143.009C126.058 143.123 127.192 143.167 128.326 143.141C128.803 143.141 128.987 143.71 128.326 143.71C127.209 143.646 126.088 143.675 124.976 143.797C123.715 143.958 123.008 144.995 120.871 145.038C119.496 145.1 118.137 144.736 116.998 144.002C116.306 143.637 116.429 143.345 116.952 143.009ZM129.94 144.834C129.064 145.739 128.772 147.651 127.066 147.899C126.497 147.899 126.328 147.607 126.497 147.067C126.974 145.33 129.418 144.148 130.863 143.506C131.078 143.506 130.986 143.345 130.863 143.301C129.433 142.717 126.943 141.52 126.467 139.783C126.297 139.243 126.467 138.922 127.035 138.951C128.741 139.199 129.034 141.112 129.91 142.017C130.284 142.44 130.766 142.766 131.309 142.965C131.391 143.014 131.459 143.081 131.507 143.162C131.554 143.242 131.579 143.333 131.579 143.425C131.579 143.517 131.554 143.608 131.507 143.689C131.459 143.769 131.391 143.837 131.309 143.885C130.783 144.099 130.315 144.423 129.94 144.834ZM133.215 144.834C132.338 145.739 132.031 147.651 130.34 147.899C129.725 147.899 129.587 147.607 129.725 147.067C130.248 145.33 132.692 144.148 134.075 143.506C134.337 143.506 134.214 143.345 134.075 143.301C132.677 142.717 130.202 141.52 129.679 139.783C129.541 139.243 129.679 138.922 130.294 138.951C131.985 139.199 132.292 141.112 133.168 142.017C133.526 142.451 134.006 142.779 134.552 142.965C134.628 143.018 134.69 143.087 134.733 143.167C134.776 143.247 134.798 143.336 134.798 143.425C134.798 143.515 134.776 143.603 134.733 143.683C134.69 143.763 134.628 143.832 134.552 143.885C134.031 144.092 133.571 144.418 133.215 144.834ZM136.781 142.352C136.91 142.36 137.036 142.391 137.153 142.445C137.269 142.499 137.373 142.574 137.459 142.667C137.545 142.759 137.61 142.866 137.652 142.983C137.694 143.099 137.711 143.222 137.703 143.345C137.734 143.473 137.734 143.606 137.703 143.735C137.672 143.863 137.611 143.983 137.525 144.086C137.438 144.189 137.329 144.272 137.204 144.329C137.079 144.386 136.942 144.415 136.804 144.415C136.665 144.415 136.528 144.386 136.404 144.329C136.279 144.272 136.169 144.189 136.083 144.086C135.996 143.983 135.936 143.863 135.905 143.735C135.874 143.606 135.874 143.473 135.905 143.345C135.887 143.104 135.969 142.866 136.132 142.681C136.295 142.496 136.528 142.378 136.781 142.352ZM142.837 143.389C143.191 143.593 143.006 143.681 142.929 143.71C142.067 144.318 141.146 144.846 140.178 145.286C140.055 145.374 139.87 145.286 139.87 145.213C139.472 144.26 139.412 143.209 139.701 142.221C139.734 142.163 139.789 142.119 139.854 142.097C139.92 142.076 139.991 142.078 140.055 142.104C140.316 142.192 141.361 142.644 142.837 143.389ZM140.362 141.024C140.983 140.229 141.873 139.661 142.883 139.418C142.914 139.409 142.947 139.406 142.98 139.41C143.012 139.413 143.044 139.422 143.072 139.437C143.101 139.452 143.126 139.472 143.146 139.497C143.167 139.521 143.182 139.549 143.191 139.579C143.388 140.59 143.491 141.616 143.498 142.644C143.498 142.761 143.498 142.936 143.191 142.761C142.243 142.327 141.325 141.84 140.439 141.301C140.393 141.272 140.36 141.227 140.346 141.176C140.332 141.125 140.338 141.071 140.362 141.024ZM143.437 147.651C142.401 147.433 141.459 146.924 140.731 146.191C140.731 146.191 140.654 145.943 140.731 145.87C141.568 145.226 142.457 144.645 143.39 144.133C143.483 144.133 143.606 143.958 143.652 144.411C143.77 145.381 143.77 146.36 143.652 147.33C143.656 147.409 143.628 147.487 143.574 147.546C143.519 147.606 143.443 147.644 143.36 147.651H143.437ZM144.574 142.761C144.267 142.936 144.267 142.761 144.267 142.688C144.115 141.673 144.059 140.647 144.098 139.623C144.104 139.559 144.134 139.499 144.182 139.454C144.229 139.409 144.292 139.381 144.359 139.374C145.4 139.488 146.367 139.942 147.095 140.659C147.187 140.732 147.187 140.863 147.095 140.951C146.325 141.669 145.45 142.279 144.497 142.761H144.574ZM144.267 144.425C144.267 144.002 144.359 144.133 144.436 144.133C145.442 144.473 146.419 144.888 147.356 145.374C147.412 145.41 147.452 145.464 147.469 145.525C147.486 145.587 147.479 145.653 147.448 145.71C146.89 146.555 146.044 147.194 145.051 147.52C144.958 147.52 144.835 147.52 144.789 147.316C144.455 146.382 144.253 145.41 144.19 144.425H144.267ZM147.756 141.608C148.191 142.523 148.309 143.545 148.094 144.527C148.098 144.561 148.091 144.595 148.075 144.626C148.059 144.656 148.034 144.681 148.003 144.698C147.972 144.715 147.937 144.723 147.901 144.721C147.865 144.72 147.831 144.708 147.802 144.688C146.777 144.432 145.782 144.075 144.835 143.622C144.743 143.622 144.574 143.447 144.835 143.243C145.63 142.619 146.473 142.053 147.356 141.549C147.464 141.447 147.587 141.52 147.679 141.608H147.756ZM150.938 144.527C150.685 144.502 150.452 144.384 150.289 144.199C150.126 144.014 150.044 143.776 150.062 143.535C150.036 143.287 150.113 143.04 150.277 142.846C150.44 142.653 150.678 142.528 150.938 142.498C151.46 142.498 151.799 142.951 151.799 143.535C151.824 143.664 151.818 143.798 151.782 143.925C151.747 144.052 151.681 144.171 151.592 144.271C151.502 144.372 151.39 144.452 151.264 144.506C151.137 144.561 151 144.588 150.861 144.586L150.938 144.527ZM153.105 143.068C153.65 142.861 154.142 142.548 154.55 142.148C155.426 141.199 155.688 139.301 157.424 139.053C157.993 138.966 158.162 139.331 157.993 139.871C157.517 141.608 155.027 142.79 153.597 143.389C153.505 143.476 153.366 143.593 153.597 143.637C155.042 144.265 157.486 145.418 157.962 147.155C158.132 147.695 157.962 148.075 157.394 147.987C155.657 147.739 155.395 145.841 154.519 144.922C154.084 144.543 153.564 144.263 152.998 144.104C152.921 144.051 152.859 143.982 152.817 143.902C152.774 143.822 152.752 143.734 152.752 143.644C152.752 143.555 152.774 143.466 152.817 143.386C152.859 143.306 152.921 143.237 152.998 143.184L153.105 143.068ZM156.379 143.068C156.924 142.861 157.416 142.548 157.824 142.148C158.685 141.199 158.946 139.301 160.652 139.053C161.267 138.966 161.39 139.331 161.267 139.871C160.729 141.608 158.301 142.79 156.856 143.389C156.779 143.476 156.641 143.593 156.856 143.637C158.301 144.265 160.683 145.418 161.221 147.155C161.344 147.695 161.221 148.075 160.606 147.987C158.9 147.739 158.639 145.841 157.778 144.922C157.379 144.505 156.885 144.18 156.333 143.973C156.276 143.923 156.23 143.863 156.198 143.797C156.166 143.73 156.147 143.658 156.145 143.585C156.142 143.511 156.154 143.438 156.181 143.369C156.208 143.301 156.25 143.238 156.302 143.184L156.379 143.068ZM166.832 145.126C164.695 145.126 164.003 144.06 162.743 143.885C161.631 143.765 160.509 143.74 159.392 143.812C158.731 143.812 158.9 143.272 159.392 143.228C160.526 143.254 161.661 143.211 162.789 143.097C164.05 142.98 164.695 141.987 166.832 141.944C168.243 141.862 169.636 142.272 170.751 143.097C171.274 143.476 171.412 143.724 170.751 144.089C169.616 144.876 168.237 145.282 166.832 145.243V145.126ZM173.119 144.469C172.989 144.462 172.863 144.43 172.746 144.376C172.63 144.322 172.526 144.247 172.44 144.155C172.355 144.062 172.289 143.955 172.247 143.839C172.205 143.722 172.188 143.599 172.196 143.476C172.184 143.351 172.198 143.224 172.237 143.103C172.277 142.982 172.342 142.87 172.428 142.774C172.514 142.677 172.619 142.598 172.738 142.541C172.856 142.483 172.986 142.449 173.119 142.44C173.377 142.469 173.613 142.595 173.775 142.789C173.936 142.983 174.01 143.231 173.979 143.476C174.01 143.614 174.007 143.757 173.971 143.894C173.934 144.031 173.865 144.158 173.768 144.265C173.671 144.372 173.55 144.457 173.414 144.513C173.277 144.568 173.129 144.593 172.98 144.586L173.119 144.469ZM175.286 143.009C175.831 142.803 176.323 142.49 176.731 142.09C177.607 141.141 177.868 139.243 179.559 138.995C180.174 138.907 180.297 139.272 180.174 139.812C179.651 141.549 177.207 142.732 175.763 143.33C175.763 143.418 175.547 143.535 175.763 143.579C177.207 144.206 179.605 145.359 180.128 147.097C180.251 147.637 180.128 148.016 179.513 147.929C177.822 147.68 177.561 145.783 176.685 144.863C176.286 144.446 175.791 144.122 175.24 143.914C175.143 143.817 175.086 143.689 175.08 143.555C175.075 143.421 175.12 143.289 175.209 143.184L175.286 143.009ZM178.56 143.009C179.09 142.8 179.567 142.487 179.959 142.09C180.82 141.141 181.127 139.243 182.833 138.995C183.433 138.907 183.571 139.272 183.433 139.812C182.91 141.549 180.359 142.732 178.99 143.33C178.914 143.418 178.821 143.535 178.99 143.579C180.435 144.206 182.864 145.359 183.387 147.097C183.525 147.637 183.387 148.016 182.787 147.929C181.081 147.68 180.774 145.783 179.913 144.863C179.529 144.449 179.051 144.124 178.514 143.914C178.417 143.817 178.36 143.689 178.354 143.555C178.349 143.421 178.394 143.289 178.483 143.184L178.56 143.009ZM189.013 145.067C186.876 145.067 186.184 144.002 184.924 143.827C183.806 143.706 182.68 143.682 181.558 143.754C180.912 143.754 181.081 143.214 181.558 143.17C182.697 143.196 183.837 143.152 184.97 143.038C186.184 142.922 186.876 141.929 189.013 141.885C190.423 141.807 191.816 142.216 192.932 143.038C193.455 143.418 193.593 143.666 192.932 144.031C191.786 144.859 190.375 145.286 188.936 145.243L189.013 145.067Z" fill="white"/>
</svg>
