<svg width="24" height="24" viewBox="0 0 24 24" fill="none" xmlns="http://www.w3.org/2000/svg">
<path fill-rule="evenodd" clip-rule="evenodd" d="M6.99609 4.94651C6.99609 2.19845 9.25664 0 11.9989 0C14.7412 0 17.0018 2.19845 17.0018 4.94651C17.0018 7.69457 14.7783 9.89301 11.9989 9.89301C9.21958 9.89301 6.99609 7.65793 6.99609 4.94651ZM10.3313 4.94651C10.3313 5.86253 11.0725 6.59534 11.9989 6.59534C12.9254 6.59534 13.6665 5.86253 13.6665 4.94651C13.6665 4.03049 12.9254 3.29767 11.9989 3.29767C11.0725 3.29767 10.3313 4.03049 10.3313 4.94651ZM14.1479 14.6191C15.519 14.3992 16.8902 13.9229 18.1502 13.2267C18.9284 12.787 19.2248 11.8344 18.8172 11.0283C18.4096 10.2588 17.409 9.96568 16.6308 10.4054C13.7773 11.9443 10.2568 11.9443 7.44036 10.3687C6.66214 9.92904 5.66158 10.1855 5.21688 10.955C4.77218 11.7611 5.03159 12.7137 5.80981 13.1534C7.03272 13.8496 8.40387 14.2893 9.77502 14.5458L5.92098 19.3091C5.47628 19.8587 5.43923 20.7747 5.84687 21.3243C6.18039 21.764 6.66214 21.9839 7.1439 21.9839C7.62565 21.9839 8.07035 21.8007 8.40387 21.3976L11.9615 17.0374L15.5561 21.3976C16.2231 22.2404 17.5572 22.2037 18.1872 21.251C18.5948 20.6648 18.4837 19.8953 18.039 19.3457L14.1479 14.6191Z" fill="white"/>
</svg>
