<svg width="24" height="24" viewBox="0 0 24 24" fill="none" xmlns="http://www.w3.org/2000/svg">
<g clip-path="url(#clip0_263_780)">
<circle cx="12" cy="16" r="8.5" stroke="white"/>
<circle cx="12" cy="16" r="8.5" stroke="white"/>
<circle cx="12" cy="16" r="8.5" stroke="white"/>
</g>
<g clip-path="url(#clip1_263_780)">
<circle cx="12" cy="7" r="2.5" stroke="white"/>
<circle cx="12" cy="7" r="2.5" stroke="white"/>
<circle cx="12" cy="7" r="2.5" stroke="white"/>
</g>
<path d="M1.75559 17.1074C1.68696 16.7955 1.92447 16.5 2.24391 16.5H21.7561C22.0755 16.5 22.313 16.7955 22.2444 17.1074L21.5844 20.1074C21.534 20.3367 21.3308 20.5 21.0961 20.5H2.90392C2.66917 20.5 2.46603 20.3367 2.41559 20.1074L1.75559 17.1074Z" stroke="white"/>
<defs>
<clipPath id="clip0_263_780">
<rect width="18" height="10" fill="white" transform="translate(3 7)"/>
</clipPath>
<clipPath id="clip1_263_780">
<rect width="6" height="4" fill="white" transform="translate(9 4)"/>
</clipPath>
</defs>
</svg>
