<svg width="24" height="24" viewBox="0 0 24 24" fill="none" xmlns="http://www.w3.org/2000/svg">
<path d="M19.2825 20.7875L19.2825 20.7875C18.4201 21.2554 17.5462 21.5 16.6662 21.5C16.4144 21.5 16.168 21.4837 15.927 21.4506C15.6815 21.4169 15.4134 21.358 15.1246 21.2768C14.8496 21.1994 14.634 21.134 14.4855 21.0813C14.3487 21.0327 14.1083 20.9439 13.7676 20.8162C13.4228 20.6869 13.2244 20.6142 13.1586 20.5922L13.1486 20.5889L13.1486 20.5888C12.2848 20.2803 11.5063 19.9119 10.8158 19.4816M19.2825 20.7875L4.51887 13.185C4.51868 13.1846 4.51848 13.1843 4.51828 13.184M19.2825 20.7875L19.2865 20.7853C19.7356 20.5363 20.1127 20.2849 20.4075 20.0287C20.698 19.7763 20.9325 19.4987 21.063 19.1906C21.1741 18.937 21.2714 18.6121 21.3594 18.2292C21.4484 17.8422 21.5 17.5002 21.5 17.2159C21.5 17.0815 21.4882 16.9177 21.4285 16.7682C21.3792 16.6351 21.2942 16.5345 21.2277 16.4673C21.152 16.3906 21.0616 16.3193 20.9664 16.2529C20.7785 16.1219 20.5286 15.9806 20.2274 15.8295C20.0605 15.7332 19.8301 15.6054 19.5383 15.4469C19.2416 15.2859 18.9731 15.1379 18.7327 15.0029C18.501 14.8728 18.2837 14.7471 18.0808 14.6256C18.0256 14.5856 17.9183 14.5109 17.7685 14.4074C17.579 14.2766 17.4041 14.1691 17.2479 14.0938C17.0667 14.0063 16.8713 13.9545 16.6662 13.9545C16.4642 13.9545 16.2818 14.0252 16.1309 14.1112C15.9778 14.1985 15.8281 14.3182 15.6826 14.4564C15.4062 14.719 15.153 15.0045 14.9231 15.3125C14.723 15.5807 14.5117 15.8276 14.2896 16.0537C14.1864 16.1588 14.1091 16.2201 14.057 16.2523C14.0489 16.2573 14.0421 16.2612 14.0366 16.2642C14.0154 16.2595 13.985 16.2508 13.9443 16.2357C13.8346 16.1951 13.7673 16.1663 13.7321 16.1487C13.695 16.1301 13.6102 16.0815 13.4645 15.9915C13.3512 15.9216 13.253 15.8611 13.2013 15.8327L13.2014 15.8327C12.0692 15.2046 11.1064 14.4902 10.3081 13.6919C9.50976 12.8936 8.79537 11.9308 8.16734 10.7986L8.16731 10.7987C8.1389 10.747 8.07844 10.6488 8.0085 10.5355C7.91848 10.3898 7.86991 10.305 7.85133 10.2679C7.83373 10.2327 7.80492 10.1654 7.76433 10.0557C7.74922 10.015 7.7405 9.98457 7.73577 9.96345C7.73877 9.95788 7.74266 9.95109 7.74765 9.94302C7.77992 9.89094 7.8412 9.81361 7.94629 9.71036C8.17236 9.48826 8.41929 9.27703 8.68754 9.07685C8.99553 8.84701 9.28099 8.59382 9.54361 8.31739C9.68184 8.17188 9.80146 8.02221 9.88876 7.86905C9.97475 7.71818 10.0455 7.53576 10.0455 7.33381C10.0455 7.12867 9.99371 6.93328 9.90624 6.75209C9.83086 6.59594 9.72337 6.42098 9.59256 6.23153C9.48909 6.08168 9.41436 5.9744 9.37438 5.91916C9.25292 5.71627 9.12716 5.49902 8.99707 5.26731C8.86208 5.02686 8.7141 4.75838 8.55306 4.46174C8.39463 4.16988 8.26681 3.93954 8.17048 3.77267C8.01937 3.4714 7.87815 3.22148 7.74713 3.0336C7.68072 2.93837 7.60935 2.84804 7.53275 2.7723C7.4655 2.7058 7.36488 2.62082 7.23183 2.57146C7.08233 2.51176 6.91854 2.5 6.78409 2.5C6.49985 2.5 6.15777 2.55159 5.77079 2.64055C5.3879 2.72857 5.063 2.82589 4.80942 2.93703M19.2825 20.7875L4.80942 2.93703M10.8158 19.4816C10.8156 19.4815 10.8153 19.4813 10.815 19.4811L11.0795 19.0569L10.8169 19.4823C10.8166 19.4821 10.8162 19.4819 10.8158 19.4816ZM10.8158 19.4816C9.68453 18.7832 8.52769 17.8385 7.3446 16.6554C6.16146 15.4723 5.21668 14.3154 4.51828 13.184M4.51828 13.184C4.088 12.4936 3.7197 11.7151 3.41123 10.8514L3.40765 10.8414L3.40776 10.8414C3.38584 10.7756 3.31314 10.5772 3.18382 10.2324C3.05607 9.89171 2.96725 9.65133 2.9187 9.51451C2.86601 9.36601 2.80056 9.1504 2.72322 8.87543C2.64199 8.58659 2.58309 8.31849 2.54939 8.07296C2.51632 7.83203 2.5 7.58556 2.5 7.33381C2.5 6.45382 2.74462 5.5799 3.21251 4.71752L3.21469 4.7135L3.21471 4.71351C3.4637 4.26444 3.71513 3.88734 3.97129 3.59252C4.2237 3.302 4.50125 3.06749 4.80942 2.93703M4.51828 13.184L4.80942 2.93703" stroke="white"/>
</svg>
