<svg width="24" height="24" viewBox="0 0 24 24" fill="none" xmlns="http://www.w3.org/2000/svg">
<path fill-rule="evenodd" clip-rule="evenodd" d="M21.5292 6.83333C21.6775 6.36333 21.5292 6.02167 20.8729 6.02167H18.6909C18.1404 6.02167 17.8863 6.32083 17.7379 6.64083C17.7379 6.64083 16.6154 9.37417 15.0479 11.1462C14.5396 11.6588 14.3067 11.8296 14.0313 11.8296C13.8829 11.8296 13.6921 11.6588 13.6921 11.1892V6.81125C13.6921 6.25625 13.5229 6 13.0567 6H9.62501C9.28584 6 9.07418 6.25625 9.07418 6.5125C9.07418 7.04625 9.85793 7.17458 9.94251 8.66917V11.9167C9.94251 12.6213 9.81751 12.75 9.54001 12.75C8.79876 12.75 6.99834 9.99542 5.91834 6.85667C5.70834 6.235 5.495 6 4.94417 6H2.74125C2.10583 6 2 6.29875 2 6.61917C2 7.19583 2.74125 10.0996 5.4525 13.9429C7.25292 16.5679 9.81584 17.9788 12.1246 17.9788C13.5229 17.9788 13.6921 17.6583 13.6921 17.1246V15.1388C13.6921 14.4983 13.8192 14.3917 14.2642 14.3917C14.5817 14.3917 15.1538 14.5621 16.4459 15.8221C17.9284 17.3167 18.1825 18 19.0088 18H21.1904C21.8259 18 22.1225 17.6796 21.9529 17.0604C21.7625 16.4413 21.0421 15.5446 20.11 14.4771C19.6017 13.8796 18.8392 13.2175 18.6063 12.8971C18.2888 12.47 18.3734 12.2992 18.6063 11.915C18.585 11.915 21.2542 8.11417 21.5292 6.83167" fill="white"/>
</svg>
