<svg width="24" height="24" viewBox="0 0 24 24" fill="none" xmlns="http://www.w3.org/2000/svg">
<g id="Social Media / Youtube">
<path id="Vector" d="M21.5821 16.8095C21.3521 17.6717 20.6744 18.3508 19.8139 18.5812C18.2542 19 12 19 12 19C12 19 5.74586 19 4.18613 18.5812C3.32565 18.3508 2.64794 17.6717 2.41792 16.8095C2 15.2466 2 11.9859 2 11.9859C2 11.9859 2 8.72509 2.41792 7.16224C2.64794 6.3 3.32565 5.64921 4.18613 5.41876C5.74586 5 12 5 12 5C12 5 18.2541 5 19.8139 5.41876C20.6744 5.64921 21.3521 6.3 21.5821 7.16224C22 8.72509 22 11.9859 22 11.9859C22 11.9859 22 15.2466 21.5821 16.8095ZM9.95453 9.02533V14.9464L15.1818 11.9858L9.95453 9.02533Z" fill="white"/>
</g>
</svg>
